<svg width="19" height="19" viewBox="0 0 19 19" fill="none" xmlns="http://www.w3.org/2000/svg">
<path d="M18.9 9.5C18.9 14.6915 14.6915 18.9 9.5 18.9C4.30852 18.9 0.1 14.6915 0.1 9.5C0.1 4.30852 4.30852 0.1 9.5 0.1C14.6915 0.1 18.9 4.30852 18.9 9.5Z" stroke="white" stroke-opacity="0.8" stroke-width="0.2"/>
<path d="M4.34713 9.29457L13.5067 5.76295C13.9318 5.60937 14.3031 5.86666 14.1654 6.50949L14.1662 6.5087L12.6066 13.8562C12.491 14.3771 12.1815 14.5037 11.7484 14.2583L9.37342 12.5079L8.22788 13.6115C8.10121 13.7382 7.99434 13.8451 7.74892 13.8451L7.91754 11.4281L12.3192 7.45157C12.5108 7.28295 12.2765 7.18795 12.0239 7.35578L6.58438 10.7805L4.23946 10.049C3.73042 9.88753 3.71934 9.53999 4.34713 9.29457Z" fill="white"/>
</svg>
