<svg width="19" height="19" viewBox="0 0 19 19" fill="none" xmlns="http://www.w3.org/2000/svg">
<path d="M1.90337 15.1L1.91979 15.0511L1.8894 15.0093C0.762652 13.462 0.1 11.5563 0.1 9.5C0.1 4.31595 4.31482 0.1 9.49763 0.1H9.50237C14.6852 0.1 18.9 4.31713 18.9 9.5C18.9 14.6829 14.6852 18.9 9.50237 18.9C7.59051 18.9 5.8177 18.3313 4.33141 17.3468L4.29143 17.3203L4.24574 17.3349L0.782221 18.4421L1.90337 15.1Z" stroke="white" stroke-opacity="0.8" stroke-width="0.2"/>
<path d="M15.0302 13.4149C14.801 14.062 13.8913 14.5988 13.1658 14.7555C12.6694 14.8612 12.021 14.9455 9.83841 14.0407C7.04659 12.884 5.24872 10.0471 5.10859 9.86304C4.97441 9.67898 3.98047 8.36085 3.98047 6.9976C3.98047 5.63435 4.67278 4.97054 4.95184 4.68554C5.18103 4.4516 5.55984 4.34473 5.92322 4.34473C6.04078 4.34473 6.14647 4.35066 6.24147 4.35541C6.52053 4.36729 6.66066 4.38391 6.84472 4.82448C7.07391 5.37666 7.63203 6.73991 7.69853 6.88004C7.76622 7.02016 7.83391 7.21016 7.73891 7.39423C7.64984 7.58423 7.57147 7.66854 7.43134 7.83004C7.29122 7.99154 7.15822 8.11504 7.01809 8.28841C6.88984 8.43923 6.74497 8.60073 6.90647 8.87979C7.06797 9.15291 7.62609 10.0637 8.44784 10.7952C9.50828 11.7393 10.368 12.0409 10.6756 12.1692C10.9048 12.2642 11.1779 12.2416 11.3453 12.0635C11.5579 11.8343 11.8203 11.4543 12.0875 11.0802C12.2775 10.8119 12.5174 10.7786 12.7692 10.8736C13.0257 10.9627 14.383 11.6336 14.662 11.7725C14.9411 11.9127 15.1252 11.9792 15.1928 12.0967C15.2593 12.2143 15.2593 12.7665 15.0302 13.4149Z" fill="#FAFAFA"/>
</svg>
