<svg width="13" height="12" viewBox="0 0 13 12" fill="none" xmlns="http://www.w3.org/2000/svg">
<g opacity="0.34">
<path d="M12.7393 10.2851C12.4797 11.0071 11.4492 11.6058 10.6272 11.7807C10.0648 11.8986 9.33029 11.9926 6.85761 10.9832C3.69478 9.69302 1.65798 6.52843 1.49924 6.32311C1.34722 6.11779 0.221191 4.64744 0.221191 3.12674C0.221191 1.60605 1.00551 0.86557 1.32166 0.547654C1.5813 0.286699 2.01046 0.16748 2.42212 0.16748C2.55531 0.16748 2.67504 0.174104 2.78266 0.179402C3.09881 0.192649 3.25756 0.211194 3.46608 0.702638C3.72573 1.3186 4.35802 2.83929 4.43336 2.9956C4.51004 3.15191 4.58673 3.36385 4.4791 3.56917C4.3782 3.78112 4.28941 3.87517 4.13067 4.05532C3.97192 4.23547 3.82124 4.37323 3.6625 4.56663C3.5172 4.73486 3.35308 4.91502 3.53604 5.22631C3.719 5.53098 4.3513 6.54698 5.28225 7.36296C6.48362 8.41606 7.45762 8.75252 7.80606 8.89558C8.0657 9.00155 8.37512 8.97638 8.56481 8.77769C8.80562 8.52203 9.10294 8.09814 9.40563 7.68088C9.62088 7.38151 9.89264 7.34442 10.1778 7.45039C10.4684 7.54974 12.0061 8.29816 12.3223 8.45315C12.6384 8.60945 12.8469 8.68364 12.9236 8.81478C12.999 8.94592 12.999 9.56188 12.7393 10.2851Z" fill="black"/>
</g>
</svg>
