<svg width="15" height="15" viewBox="0 0 15 15" fill="none" xmlns="http://www.w3.org/2000/svg">
<path d="M13.5087 9.87203C12.6634 9.87203 11.8333 9.73981 11.0467 9.47987C10.6613 9.3484 10.1874 9.46901 9.95219 9.71062L8.3996 10.8827C6.59905 9.92151 5.48994 8.81277 4.54192 7.02573L5.67948 5.5136C5.97502 5.21845 6.08103 4.78731 5.95402 4.38277C5.69296 3.59204 5.56035 2.76237 5.56035 1.91662C5.56038 1.30565 5.06332 0.808594 4.45239 0.808594H1.91659C1.30565 0.808594 0.808594 1.30565 0.808594 1.91659C0.808594 8.91953 6.5058 14.6167 13.5087 14.6167C14.1197 14.6167 14.6167 14.1196 14.6167 13.5087V10.98C14.6167 10.3691 14.1196 9.87203 13.5087 9.87203Z" fill="#FAFAFA"/>
</svg>
