<svg width="15" height="15" viewBox="0 0 15 15" fill="none" xmlns="http://www.w3.org/2000/svg">
<path d="M13.6977 9.56832C12.8523 9.56832 12.0223 9.4361 11.2357 9.17616C10.8502 9.04469 10.3764 9.1653 10.1412 9.40691L8.58857 10.5789C6.78801 9.6178 5.6789 8.50905 4.73089 6.72202L5.86844 5.20989C6.16398 4.91474 6.26999 4.4836 6.14298 4.07906C5.88193 3.28833 5.74931 2.45866 5.74931 1.61291C5.74935 1.00194 5.25229 0.504883 4.64135 0.504883H2.10555C1.49461 0.504883 0.997559 1.00194 0.997559 1.61288C0.997559 8.61582 6.69477 14.313 13.6977 14.313C14.3086 14.313 14.8057 13.8159 14.8057 13.205V10.6763C14.8057 10.0654 14.3086 9.56832 13.6977 9.56832Z" fill="#E2CAA8"/>
</svg>
