<svg width="12" height="11" viewBox="0 0 12 11" fill="none" xmlns="http://www.w3.org/2000/svg">
<path d="M11.7855 9.52553C11.5411 10.2052 10.5709 10.7689 9.79698 10.9335C9.26755 11.0445 8.576 11.1331 6.24803 10.1828C3.2703 8.96806 1.35271 5.98868 1.20325 5.79538C1.06013 5.60208 0 4.21777 0 2.78607C0 1.35438 0.738415 0.657234 1.03606 0.357925C1.28051 0.112241 1.68455 0 2.07212 0C2.19751 0 2.31024 0.00623569 2.41156 0.0112242C2.70921 0.0236954 2.85867 0.0411554 3.05499 0.503838C3.29944 1.08375 3.89473 2.51545 3.96566 2.66261C4.03785 2.80977 4.11005 3.00931 4.00872 3.20261C3.91373 3.40215 3.83013 3.4907 3.68068 3.66031C3.53122 3.82991 3.38936 3.95962 3.23991 4.1417C3.10312 4.30008 2.94859 4.46969 3.12085 4.76276C3.2931 5.0496 3.88839 6.00614 4.76487 6.77437C5.89592 7.76583 6.81292 8.0826 7.14097 8.21729C7.38542 8.31706 7.67673 8.29337 7.85532 8.1063C8.08204 7.86561 8.36195 7.46653 8.64693 7.07368C8.84958 6.79183 9.10543 6.75691 9.37395 6.85668C9.64753 6.95022 11.0952 7.65484 11.3929 7.80075C11.6905 7.94791 11.8868 8.01775 11.959 8.14122C12.03 8.26468 12.03 8.8446 11.7855 9.52553Z" fill="white"/>
</svg>
