<svg width="24" height="24" viewBox="0 0 24 24" fill="none" xmlns="http://www.w3.org/2000/svg">
<path d="M12 24C18.6274 24 24 18.6274 24 12C24 5.37258 18.6274 0 12 0C5.37258 0 0 5.37258 0 12C0 18.6274 5.37258 24 12 24Z" fill="#039BE5"/>
<path d="M5.49077 11.7392L17.0608 7.27823C17.5978 7.08423 18.0668 7.40923 17.8928 8.22123L17.8938 8.22023L15.9238 17.5012C15.7778 18.1592 15.3868 18.3192 14.8398 18.0092L11.8398 15.7982L10.3928 17.1922C10.2328 17.3522 10.0978 17.4872 9.78778 17.4872L10.0008 14.4342L15.5608 9.41123C15.8028 9.19823 15.5068 9.07823 15.1878 9.29023L8.31678 13.6162L5.35477 12.6922C4.71177 12.4882 4.69777 12.0492 5.49077 11.7392Z" fill="white"/>
</svg>
