<svg width="12" height="12" viewBox="0 0 12 12" fill="none" xmlns="http://www.w3.org/2000/svg">
<g clip-path="url(#clip0)">
<path d="M5.91473 5.78043C6.70886 5.78043 7.39651 5.49561 7.95837 4.93367C8.52023 4.37181 8.80505 3.68434 8.80505 2.89013C8.80505 2.09618 8.52023 1.40862 7.95828 0.846585C7.39633 0.284819 6.70877 0 5.91473 0C5.12051 0 4.43304 0.284819 3.87119 0.846676C3.30933 1.40853 3.02441 2.09609 3.02441 2.89013C3.02441 3.68434 3.30933 4.3719 3.87128 4.93376C4.43323 5.49552 5.12079 5.78043 5.91473 5.78043Z" fill="#A8A8A8"/>
<path d="M10.9718 9.2278C10.9556 8.99398 10.9228 8.73891 10.8745 8.46956C10.8258 8.1982 10.7631 7.94167 10.688 7.70721C10.6105 7.46487 10.505 7.22555 10.3747 6.99621C10.2393 6.75817 10.0804 6.5509 9.90207 6.38034C9.71558 6.2019 9.48724 6.05844 9.22321 5.9538C8.96008 5.8497 8.66849 5.79697 8.35657 5.79697C8.23407 5.79697 8.1156 5.84723 7.88681 5.99618C7.746 6.08801 7.5813 6.19421 7.39746 6.31167C7.24026 6.41183 7.02731 6.50567 6.76428 6.59063C6.50766 6.67367 6.2471 6.71579 5.98993 6.71579C5.73276 6.71579 5.47229 6.67367 5.21539 6.59063C4.95264 6.50577 4.73969 6.41192 4.58267 6.31177C4.40057 6.1954 4.23578 6.0892 4.09286 5.99609C3.86435 5.84714 3.74579 5.79688 3.62329 5.79688C3.31128 5.79688 3.01978 5.8497 2.75674 5.95389C2.49289 6.05835 2.26447 6.20181 2.07779 6.38043C1.89954 6.55108 1.74051 6.75827 1.60538 6.99621C1.4751 7.22555 1.36963 7.46478 1.29199 7.7073C1.21701 7.94176 1.1543 8.1982 1.10559 8.46956C1.05734 8.73854 1.02457 8.9937 1.00836 9.22808C0.992432 9.45769 0.984375 9.696 0.984375 9.93669C0.984375 10.5631 1.1835 11.0702 1.57617 11.4442C1.96399 11.8132 2.47714 12.0005 3.10117 12.0005H8.87924C9.50327 12.0005 10.0162 11.8133 10.4041 11.4442C10.7969 11.0705 10.996 10.5633 10.996 9.9366C10.9959 9.69481 10.9878 9.45632 10.9718 9.2278Z" fill="#A8A8A8"/>
</g>
<defs>
<clipPath id="clip0">
<rect width="12" height="12" fill="white"/>
</clipPath>
</defs>
</svg>
