<svg width="16" height="16" viewBox="0 0 16 16" fill="none" xmlns="http://www.w3.org/2000/svg">
<g clip-path="url(#clip0)">
<path d="M15.0094 9.06738C15.453 5.33309 14.7962 2.97553 13.6116 1.90921L13.6122 1.90859C11.7001 0.0875988 5.2427 -0.181925 2.95516 1.99037C1.92787 3.05298 1.56603 4.6125 1.52637 6.54316C1.48672 8.47443 1.43963 12.0922 4.81085 13.0737H4.81394L4.81085 14.5725C4.81085 14.5725 4.78792 15.1797 5.17579 15.3017C5.61942 15.4455 5.82016 15.1636 7.2 13.5155C9.50737 13.7156 11.2794 13.2571 11.4808 13.1902C11.9467 13.034 14.5831 12.6852 15.0094 9.06738ZM7.42739 12.4609C7.42739 12.4609 5.96701 14.2819 5.51285 14.7546C5.36414 14.9083 5.20119 14.8941 5.20367 14.5892C5.20367 14.3891 5.21482 12.1009 5.21482 12.1009C2.35663 11.2818 2.52516 8.20119 2.55614 6.58963C2.58712 4.97744 2.88205 3.65708 3.75196 2.76797C5.75883 0.886256 11.4201 1.30696 12.8625 2.66263C14.6258 4.22587 13.9982 8.64234 14.0019 8.7929C13.6394 11.8128 11.5031 12.0043 11.1103 12.135C10.9424 12.1908 9.38407 12.5916 7.42739 12.4609Z" fill="white"/>
<path d="M8.23555 3.12158C7.997 3.12158 7.997 3.49334 8.23555 3.49644C10.0863 3.51069 11.6105 4.80068 11.6272 7.16692C11.6272 7.41661 11.9928 7.41351 11.9897 7.16382H11.9891C11.9692 4.61419 10.305 3.13583 8.23555 3.12158Z" fill="white"/>
<path d="M10.6693 6.77502C10.6637 7.02162 11.0287 7.03339 11.0318 6.78369C11.0621 5.37783 10.1953 4.21981 8.56638 4.09775C8.32784 4.0804 8.30306 4.45526 8.54098 4.47261C9.95366 4.5798 10.6978 5.54389 10.6693 6.77502Z" fill="white"/>
<path d="M10.2796 8.37411C9.97347 8.19691 9.66182 8.3072 9.53294 8.4813L9.26342 8.83013C9.12649 9.00734 8.8706 8.98379 8.8706 8.98379C7.00314 8.48998 6.50375 6.53578 6.50375 6.53578C6.50375 6.53578 6.48082 6.27121 6.65183 6.12932L6.98889 5.8505C7.15742 5.71667 7.26399 5.39448 7.09236 5.07787C6.63386 4.24947 6.32593 3.96384 6.16917 3.7445C6.00436 3.53818 5.75652 3.49171 5.49877 3.63112H5.49319C4.95724 3.94463 4.37049 4.53139 4.55822 5.13549C4.87855 5.77244 5.46717 7.80285 7.3433 9.33696C8.22498 10.0625 9.62031 10.806 10.2126 10.9776L10.2182 10.9863C10.8019 11.1809 11.3694 10.5712 11.6724 10.0191V10.0148C11.8069 9.74775 11.7622 9.49496 11.5658 9.32953C11.2176 8.98999 10.6922 8.61514 10.2796 8.37411Z" fill="white"/>
<path d="M8.82261 5.48072C9.41805 5.51542 9.70678 5.82646 9.73776 6.46526C9.74891 6.71496 10.1114 6.69761 10.1002 6.44791C10.0606 5.61393 9.62561 5.14924 8.84244 5.10586C8.6039 5.09161 8.58159 5.46647 8.82261 5.48072Z" fill="white"/>
</g>
<defs>
<clipPath id="clip0">
<rect width="14.8703" height="14.8703" fill="white" transform="translate(0.662109 0.459473)"/>
</clipPath>
</defs>
</svg>
