<svg width="16" height="16" viewBox="0 0 16 16" fill="none" xmlns="http://www.w3.org/2000/svg">
<g clip-path="url(#clip0)">
<path d="M15.0875 9.35425C15.5311 5.61995 14.8744 3.26239 13.6897 2.19607L13.6903 2.19545C11.7782 0.374464 5.32083 0.10494 3.03328 2.27724C2.006 3.33984 1.64415 4.89936 1.6045 6.83002C1.56485 8.7613 1.51776 12.3791 4.88897 13.3605H4.89207L4.88897 14.8593C4.88897 14.8593 4.86605 15.4666 5.25391 15.5886C5.69754 15.7324 5.89829 15.4504 7.27813 13.8023C9.5855 14.0024 11.3575 13.544 11.5589 13.477C12.0248 13.3209 14.6612 12.9721 15.0875 9.35425ZM7.50552 12.7478C7.50552 12.7478 6.04513 14.5688 5.59097 15.0415C5.44227 15.1952 5.27931 15.1809 5.28179 14.8761C5.28179 14.6759 5.29295 12.3878 5.29295 12.3878C2.43476 11.5687 2.60329 8.48806 2.63427 6.87649C2.66525 5.26431 2.96017 3.94395 3.83008 3.05483C5.83695 1.17312 11.4982 1.59383 12.9406 2.9495C14.704 4.51274 14.0763 8.92921 14.08 9.07977C13.7176 12.0997 11.5812 12.2911 11.1884 12.4219C11.0205 12.4776 9.4622 12.8785 7.50552 12.7478Z" fill="#8E24AA"/>
<path d="M8.31367 3.40869C8.07513 3.40869 8.07513 3.78045 8.31367 3.78355C10.1644 3.7978 11.6886 5.08779 11.7053 7.45403C11.7053 7.70372 12.0709 7.70062 12.0678 7.45093H12.0672C12.0474 4.9013 10.3831 3.42294 8.31367 3.40869Z" fill="#8E24AA"/>
<path d="M10.7474 7.06164C10.7418 7.30824 11.1068 7.32001 11.1099 7.07032C11.1402 5.66446 10.2734 4.50643 8.64451 4.38437C8.40596 4.36702 8.38118 4.74188 8.61911 4.75923C10.0318 4.86642 10.7759 5.83051 10.7474 7.06164Z" fill="#8E24AA"/>
<path d="M10.3577 8.66098C10.0516 8.48377 9.73994 8.59406 9.61107 8.76817L9.34154 9.117C9.20461 9.2942 8.94872 9.27066 8.94872 9.27066C7.08127 8.77684 6.58187 6.82264 6.58187 6.82264C6.58187 6.82264 6.55895 6.55807 6.72996 6.41619L7.06702 6.13737C7.23555 6.00354 7.34212 5.68135 7.17049 5.36473C6.71199 4.53634 6.40405 4.2507 6.24729 4.03137C6.08248 3.82504 5.83464 3.77857 5.57689 3.91798H5.57132C5.03537 4.2315 4.44861 4.81825 4.63635 5.42236C4.95668 6.0593 5.54529 8.08971 7.42142 9.62383C8.30311 10.3494 9.69843 11.0929 10.2908 11.2645L10.2963 11.2732C10.88 11.4677 11.4475 10.8581 11.7505 10.306V10.3017C11.885 10.0346 11.8404 9.78182 11.644 9.61639C11.2957 9.27685 10.7703 8.902 10.3577 8.66098Z" fill="#8E24AA"/>
<path d="M8.90074 5.76734C9.49617 5.80204 9.78491 6.11308 9.81589 6.75188C9.82704 7.00158 10.1895 6.98423 10.1784 6.73453C10.1387 5.90055 9.70374 5.43586 8.92057 5.39249C8.68202 5.37824 8.65972 5.75309 8.90074 5.76734Z" fill="#8E24AA"/>
</g>
<defs>
<clipPath id="clip0">
<rect width="14.8703" height="14.8703" fill="white" transform="translate(0.740234 0.746094)"/>
</clipPath>
</defs>
</svg>
