<svg width="16" height="16" viewBox="0 0 16 16" fill="none" xmlns="http://www.w3.org/2000/svg">
<g clip-path="url(#clip0)">
<path d="M8.36863 0.808594H8.36492C4.26537 0.808594 0.931641 4.14325 0.931641 8.24373C0.931641 9.87016 1.45582 11.3776 2.3471 12.6016L1.4205 15.3638L4.27838 14.4502C5.45406 15.229 6.85651 15.6789 8.36863 15.6789C12.4682 15.6789 15.8019 12.3433 15.8019 8.24373C15.8019 4.14418 12.4682 0.808594 8.36863 0.808594Z" fill="#FAFAFA"/>
<path d="M12.6958 11.3082C12.5165 11.8147 11.8046 12.2348 11.2367 12.3575C10.8482 12.4402 10.3408 12.5062 8.63254 11.798C6.44754 10.8927 5.04044 8.67241 4.93077 8.52836C4.82575 8.3843 4.04785 7.35268 4.04785 6.28573C4.04785 5.21879 4.58969 4.69926 4.80809 4.47621C4.98747 4.29312 5.28394 4.20947 5.56834 4.20947C5.66035 4.20947 5.74306 4.21412 5.81741 4.21784C6.03582 4.22713 6.14549 4.24014 6.28955 4.58495C6.46892 5.01711 6.90573 6.08406 6.95778 6.19372C7.01075 6.30339 7.06373 6.4521 6.98938 6.59615C6.91967 6.74485 6.85833 6.81084 6.74866 6.93724C6.639 7.06363 6.5349 7.16029 6.42524 7.29598C6.32486 7.41402 6.21148 7.54041 6.33787 7.75882C6.46427 7.97258 6.90108 8.68542 7.54422 9.25793C8.37417 9.9968 9.04705 10.2329 9.28776 10.3332C9.46714 10.4076 9.6809 10.3899 9.81194 10.2505C9.9783 10.0711 10.1837 9.77374 10.3928 9.48098C10.5415 9.27094 10.7293 9.24492 10.9263 9.31927C11.127 9.38897 12.1893 9.91408 12.4077 10.0228C12.6261 10.1325 12.7702 10.1845 12.8232 10.2765C12.8752 10.3686 12.8752 10.8007 12.6958 11.3082Z" fill="#4CAF50"/>
</g>
<defs>
<clipPath id="clip0">
<rect width="14.8703" height="14.8703" fill="white" transform="translate(0.931641 0.808594)"/>
</clipPath>
</defs>
</svg>
