<svg width="16" height="16" viewBox="0 0 16 16" fill="none" xmlns="http://www.w3.org/2000/svg">
<g clip-path="url(#clip0)">
<path d="M8.291 0.505371H8.28728C4.18773 0.505371 0.854004 3.84003 0.854004 7.94051C0.854004 9.56694 1.37818 11.0744 2.26947 12.2984L1.34286 15.0606L4.20074 14.147C5.37643 14.9258 6.77888 15.3756 8.291 15.3756C12.3905 15.3756 15.7243 12.0401 15.7243 7.94051C15.7243 3.84096 12.3905 0.505371 8.291 0.505371Z" fill="#4CAF50"/>
<path d="M12.6182 11.0049C12.4388 11.5115 11.7269 11.9315 11.1591 12.0542C10.7706 12.1369 10.2631 12.2029 8.55491 11.4947C6.3699 10.5895 4.96281 8.36919 4.85314 8.22513C4.74812 8.08108 3.97021 7.04945 3.97021 5.98251C3.97021 4.91557 4.51205 4.39604 4.73046 4.17299C4.90983 3.9899 5.20631 3.90625 5.4907 3.90625C5.58271 3.90625 5.66543 3.9109 5.73978 3.91461C5.95818 3.92391 6.06785 3.93692 6.21191 4.28172C6.39128 4.71389 6.8281 5.78083 6.88014 5.8905C6.93312 6.00017 6.98609 6.14887 6.91174 6.29293C6.84204 6.44163 6.7807 6.50762 6.67103 6.63401C6.56136 6.76041 6.45727 6.85707 6.3476 6.99276C6.24723 7.11079 6.13384 7.23719 6.26024 7.4556C6.38663 7.66936 6.82345 8.3822 7.46659 8.95471C8.29653 9.69357 8.96941 9.92964 9.21013 10.03C9.3895 10.1044 9.60326 10.0867 9.7343 9.9473C9.90067 9.76792 10.1061 9.47052 10.3152 9.17776C10.4639 8.96772 10.6516 8.94169 10.8486 9.01605C11.0494 9.08575 12.1117 9.61086 12.3301 9.7196C12.5485 9.82926 12.6926 9.88131 12.7455 9.97332C12.7976 10.0653 12.7976 10.4975 12.6182 11.0049Z" fill="#FAFAFA"/>
</g>
<defs>
<clipPath id="clip0">
<rect width="14.8703" height="14.8703" fill="white" transform="translate(0.854004 0.505371)"/>
</clipPath>
</defs>
</svg>
