<svg width="24" height="23" viewBox="0 0 24 23" fill="none" xmlns="http://www.w3.org/2000/svg">
<path d="M23.5334 0H1.21659C1.02796 0 0.875 0.152959 0.875 0.341586V22.6584C0.875 22.847 1.02796 23 1.21659 23H23.5334C23.722 23 23.875 22.847 23.875 22.6584V0.341586C23.875 0.152959 23.722 0 23.5334 0ZM17.7948 0.683172C17.3802 0.780383 16.9651 0.887477 16.55 1.00522C14.685 1.53408 12.8144 2.27004 10.9891 3.19237C10.7819 3.0617 10.3904 2.79679 9.98403 2.4269C9.53257 2.01591 8.98838 1.40304 8.75749 0.683172H17.7948ZM8.04736 0.683172C8.37942 2.03388 9.59276 3.0568 10.2966 3.55215C8.24794 4.64708 6.81924 5.68042 6.19914 6.1569C5.0318 3.78988 3.07159 1.67662 2.07015 0.683172H8.04736ZM1.55817 1.14138C2.5398 2.11703 4.55172 4.2789 5.66268 6.61596C4.04657 8.15193 2.3098 8.69876 1.55817 8.87414V1.14138ZM1.55817 9.57564C2.25361 9.43458 4.03431 8.94574 5.78631 7.42635C5.80621 7.81295 5.82225 8.34985 5.81277 9.00994C5.81003 9.19856 5.96079 9.35368 6.14941 9.35633C6.15112 9.35633 6.15274 9.35637 6.15444 9.35637C6.34082 9.35637 6.4932 9.2066 6.49589 9.01968C6.51153 7.93123 6.46095 7.17537 6.43206 6.84232C6.72563 6.61043 7.47569 6.03952 8.58997 5.33564C8.56616 5.71312 8.5588 6.21409 8.61279 6.77817C8.75776 8.29204 9.28649 9.58431 10.1462 10.5336C9.65974 11.453 9.22404 12.5411 8.96624 13.7783C7.69661 13.234 6.68812 12.9174 6.21262 12.7802C6.33274 11.8817 6.40614 11.0583 6.44823 10.3302C6.4591 10.1419 6.31531 9.98038 6.12691 9.96947C5.93846 9.95828 5.7771 10.1024 5.76618 10.2908C5.6864 11.6714 5.49274 13.3993 5.07156 15.3406C3.73284 15.4627 2.32328 16.4226 1.55826 17.0244V9.57564H1.55817ZM12.6068 15.7032C13.9119 14.2826 16.1196 14.2029 17.0039 14.2339C16.8251 15.6754 16.5479 17.1947 16.1222 18.6092C15.0408 17.4385 13.8046 16.4761 12.6068 15.7032ZM13.993 17.5494C10.8387 19.3512 6.09955 19.5018 4.60383 19.5015C5.37074 17.3159 5.83649 15.2593 6.11383 13.4644C7.26042 13.8066 10.9065 15.031 13.993 17.5494ZM15.1451 13.6843C14.8098 12.9362 13.7312 10.7842 11.7994 9.1929C11.8796 9.08513 11.9588 8.98217 12.0359 8.88492C12.9425 7.7417 13.7763 7.08306 13.9091 6.98113C14.0996 6.88167 15.4616 6.18489 17.2393 5.61636C17.2979 6.58793 17.4088 9.09955 17.2178 11.9675C17.1842 12.4726 17.1399 13.0046 17.082 13.5527C16.6548 13.5338 15.9392 13.5369 15.1451 13.6843ZM14.4652 13.8448C13.4396 14.1393 12.6197 14.6393 12.0193 15.3369C11.199 14.8426 10.4127 14.4381 9.72564 14.118C9.68535 14.0992 9.64559 14.081 9.60561 14.0627C9.95012 12.2907 10.6868 10.8319 11.4046 9.75326C13.0895 11.1599 14.0988 13.0648 14.4652 13.8448ZM1.55817 22.3168V17.9117C1.7539 17.7409 2.19799 17.3697 2.76275 16.9997C3.55481 16.4808 4.28668 16.1586 4.90898 16.0512C4.44292 17.9934 3.74623 20.1232 2.7146 22.3168H1.55817V22.3168ZM3.46856 22.3168C3.79843 21.5971 4.09289 20.8848 4.35618 20.1839C4.43829 20.1851 4.53919 20.186 4.65765 20.186C5.3193 20.186 6.51921 20.1573 7.94215 19.9914C10.6973 19.6703 12.916 19.0066 14.5435 18.0181C15.0101 18.4332 15.4588 18.88 15.8781 19.3602C15.4895 20.4681 14.9977 21.4859 14.3762 22.3168H3.46856ZM15.2106 22.3168C15.9741 21.1622 16.5905 19.6596 17.0463 17.8378C17.1678 17.3525 17.2776 16.8434 17.3766 16.3132C17.6929 16.1774 18.4801 15.8744 19.4887 15.7384C19.5081 16.8733 19.6669 20.2086 20.8267 22.3168H15.2106ZM23.1918 15.5306C22.9307 15.4175 22.6617 15.3212 22.3872 15.2436C22.2057 15.1923 22.0169 15.2977 21.9655 15.4793C21.9142 15.6608 22.0196 15.8496 22.2012 15.901C22.5431 15.9976 22.8753 16.1264 23.1918 16.2838V22.3169H21.6237C20.3532 20.4022 20.1915 16.7661 20.1721 15.677C20.5048 15.6624 20.8529 15.6698 21.2096 15.709C21.397 15.7298 21.5658 15.5942 21.5864 15.4067C21.607 15.2192 21.4717 15.0505 21.2842 15.0299C19.6864 14.8544 18.2747 15.2444 17.5134 15.5228C17.6876 14.4295 17.8172 13.2533 17.9001 12.0036C17.9073 11.8955 17.914 11.788 17.9203 11.681C18.1557 11.4708 18.9844 10.706 19.8729 9.59257C19.9314 9.5193 19.9884 9.44617 20.0449 9.37313C20.4365 10.0597 21.338 11.2303 23.1918 11.9808V15.5306ZM17.9111 5.41425C19.0698 5.08799 20.3524 4.84577 21.5792 4.85987C21.2229 6.53308 20.1859 8.10328 19.3471 9.15607C18.8326 9.80173 18.3322 10.3314 17.9686 10.6929C18.0655 8.19492 17.9583 6.14091 17.9111 5.41425ZM23.1918 11.2377C21.4056 10.429 20.6979 9.18854 20.4979 8.75905C21.4344 7.42415 22.0285 6.12937 22.2695 4.8963C22.5843 4.92717 22.8928 4.97833 23.1918 5.05223V11.2377ZM23.1918 4.35073C21.5174 3.98062 19.4352 4.18964 16.9936 4.97483C15.9642 5.3059 15.0806 5.67408 14.468 5.95215L15.0669 4.72946C15.1499 4.56002 15.0798 4.35545 14.9104 4.27243C14.741 4.18946 14.5364 4.25949 14.4534 4.42894L13.4537 6.46951C13.2168 6.65468 12.4068 7.32159 11.5155 8.44172C11.1954 8.84381 10.8446 9.3327 10.503 9.90114C9.0192 8.0898 9.2368 5.52804 9.31941 4.88831C9.89626 4.54506 10.5452 4.1829 11.2584 3.82132C12.701 3.09 14.172 2.47834 15.6452 1.99601L14.991 3.3315C14.908 3.50094 14.978 3.70552 15.1475 3.78853C15.1959 3.81221 15.247 3.82344 15.2975 3.82344C15.4238 3.82344 15.5452 3.75313 15.6045 3.63207L16.5417 1.71894C16.6066 1.70002 16.6716 1.68075 16.7364 1.66238C18.9103 1.04587 21.0801 0.718301 23.1918 0.686271V4.35073Z" fill="#BDA988"/>
</svg>
