<svg width="23" height="24" viewBox="0 0 23 24" fill="none" xmlns="http://www.w3.org/2000/svg">
<path d="M21.8667 2.64155H17.8365V1.18262C17.8365 1.09559 17.8034 1.01213 17.7444 0.950598C17.6855 0.889062 17.6055 0.854492 17.5221 0.854492H16.1812C16.1399 0.854468 16.099 0.862938 16.0609 0.879419C16.0227 0.8959 15.988 0.920069 15.9588 0.950543C15.9296 0.981017 15.9065 1.0172 15.8907 1.05702C15.8749 1.09684 15.8668 1.13952 15.8668 1.18262V2.64155H12.4849V1.18262C12.4849 1.13952 12.4768 1.09684 12.461 1.05702C12.4452 1.0172 12.422 0.981017 12.3928 0.950543C12.3636 0.920069 12.329 0.8959 12.2908 0.879419C12.2526 0.862938 12.2117 0.854468 12.1704 0.854492H10.8296C10.7883 0.854468 10.7474 0.862938 10.7092 0.879419C10.6711 0.8959 10.6364 0.920069 10.6072 0.950543C10.578 0.981017 10.5548 1.0172 10.539 1.05702C10.5232 1.09684 10.5151 1.13952 10.5152 1.18262V2.64155H7.13361V1.18262C7.13363 1.13952 7.12552 1.09684 7.10972 1.05702C7.09393 1.0172 7.07077 0.981017 7.04156 0.950543C7.01236 0.920069 6.97768 0.8959 6.93952 0.879419C6.90136 0.862938 6.86046 0.854468 6.81916 0.854492H5.47797C5.39457 0.854492 5.31459 0.889062 5.25562 0.950598C5.19665 1.01213 5.16352 1.09559 5.16352 1.18262V2.64155H1.1333C1.092 2.64153 1.0511 2.65 1.01294 2.66648C0.974775 2.68296 0.940101 2.70713 0.910896 2.73761C0.881692 2.76808 0.85853 2.80426 0.842736 2.84408C0.826942 2.8839 0.818824 2.92658 0.818848 2.96968V22.8175C0.818824 22.8606 0.826942 22.9033 0.842736 22.9431C0.85853 22.9829 0.881692 23.0191 0.910896 23.0496C0.940101 23.08 0.974775 23.1042 1.01294 23.1207C1.0511 23.1372 1.092 23.1456 1.1333 23.1456H21.8667C21.908 23.1456 21.9489 23.1372 21.9871 23.1207C22.0253 23.1042 22.0599 23.08 22.0891 23.0496C22.1183 23.0191 22.1415 22.9829 22.1573 22.9431C22.1731 22.9033 22.1812 22.8606 22.1812 22.8175V2.96968C22.1812 2.92658 22.1731 2.8839 22.1573 2.84408C22.1415 2.80426 22.1183 2.76808 22.0891 2.73761C22.0599 2.70713 22.0253 2.68296 21.9871 2.66648C21.9489 2.65 21.908 2.64153 21.8667 2.64155ZM16.4953 1.51074H17.2073V4.42862H16.4953V1.51074ZM11.1437 1.51074H11.8556V4.42862H11.1441L11.1437 1.51074ZM5.79206 1.51074H6.5047V4.42862H5.79242L5.79206 1.51074ZM1.44775 3.2978H5.16352V4.75674C5.16352 4.84377 5.19665 4.92723 5.25562 4.98876C5.31459 5.0503 5.39457 5.08487 5.47797 5.08487H6.8188C6.8601 5.08489 6.901 5.07642 6.93916 5.05994C6.97732 5.04346 7.012 5.01929 7.0412 4.98882C7.07041 4.95834 7.09357 4.92216 7.10936 4.88234C7.12516 4.84252 7.13328 4.79984 7.13325 4.75674V3.2978H10.5152V4.75674C10.5151 4.79984 10.5232 4.84252 10.539 4.88234C10.5548 4.92216 10.578 4.95834 10.6072 4.98882C10.6364 5.01929 10.6711 5.04346 10.7092 5.05994C10.7474 5.07642 10.7883 5.08489 10.8296 5.08487H12.1704C12.2117 5.08489 12.2526 5.07642 12.2908 5.05994C12.329 5.04346 12.3636 5.01929 12.3928 4.98882C12.422 4.95834 12.4452 4.92216 12.461 4.88234C12.4768 4.84252 12.4849 4.79984 12.4849 4.75674V3.2978H15.8664V4.75674C15.8664 4.79984 15.8745 4.84252 15.8903 4.88234C15.9061 4.92216 15.9293 4.95834 15.9585 4.98882C15.9877 5.01929 16.0224 5.04346 16.0605 5.05994C16.0987 5.07642 16.1396 5.08489 16.1809 5.08487H17.5217C17.6051 5.08487 17.6851 5.0503 17.7441 4.98876C17.803 4.92723 17.8362 4.84377 17.8362 4.75674V3.2978H21.5519V7.05249H1.44775V3.2978ZM1.44775 22.4894V7.70874H21.5523V22.4894H1.44775Z" fill="#BDA988"/>
<path d="M4.97077 9.19043C4.68529 9.19043 4.40622 9.27877 4.16885 9.44427C3.93148 9.60977 3.74647 9.84501 3.63722 10.1202C3.52797 10.3954 3.49938 10.6983 3.55508 10.9905C3.61077 11.2826 3.74825 11.551 3.95011 11.7617C4.15198 11.9723 4.40918 12.1158 4.68917 12.1739C4.96917 12.232 5.2594 12.2022 5.52315 12.0882C5.7869 11.9742 6.01233 11.7811 6.17094 11.5334C6.32955 11.2857 6.4142 10.9945 6.4142 10.6966C6.41382 10.2973 6.26162 9.9144 5.99101 9.63202C5.7204 9.34964 5.35348 9.19083 4.97077 9.19043ZM4.97077 11.5466C4.80968 11.5466 4.6522 11.4967 4.51825 11.4033C4.3843 11.3099 4.2799 11.1772 4.21825 11.0219C4.1566 10.8666 4.14047 10.6957 4.1719 10.5308C4.20333 10.3659 4.28091 10.2145 4.39482 10.0956C4.50873 9.97676 4.65387 9.89581 4.81187 9.86301C4.96987 9.83022 5.13364 9.84705 5.28248 9.91138C5.43131 9.97571 5.55852 10.0846 5.64802 10.2244C5.73753 10.3642 5.7853 10.5285 5.7853 10.6966C5.78511 10.922 5.69923 11.138 5.54652 11.2974C5.39381 11.4568 5.18674 11.5464 4.97077 11.5466Z" fill="#BDA988"/>
<path d="M9.32527 9.19043C9.03978 9.19043 8.76071 9.27877 8.52334 9.44427C8.28597 9.60977 8.10096 9.84501 7.99171 10.1202C7.88246 10.3954 7.85388 10.6983 7.90957 10.9905C7.96527 11.2826 8.10274 11.551 8.30461 11.7617C8.50648 11.9723 8.76367 12.1158 9.04367 12.1739C9.32367 12.232 9.61389 12.2022 9.87765 12.0882C10.1414 11.9742 10.3668 11.7811 10.5254 11.5334C10.684 11.2857 10.7687 10.9945 10.7687 10.6966C10.7683 10.2973 10.6161 9.91445 10.3455 9.63208C10.0749 9.34971 9.70796 9.19088 9.32527 9.19043ZM9.32527 11.5466C9.16417 11.5466 9.00669 11.4967 8.87274 11.4033C8.73879 11.3099 8.6344 11.1772 8.57275 11.0219C8.5111 10.8666 8.49497 10.6957 8.52639 10.5308C8.55782 10.3659 8.6354 10.2145 8.74931 10.0956C8.86323 9.97676 9.00836 9.89581 9.16636 9.86301C9.32436 9.83022 9.48814 9.84705 9.63697 9.91138C9.78581 9.97571 9.91302 10.0846 10.0025 10.2244C10.092 10.3642 10.1398 10.5285 10.1398 10.6966C10.1396 10.922 10.0537 11.138 9.90096 11.2973C9.74826 11.4567 9.54122 11.5463 9.32527 11.5466Z" fill="#BDA988"/>
<path d="M13.6768 9.19043C13.3914 9.19043 13.1123 9.27877 12.8749 9.44427C12.6375 9.60977 12.4525 9.84501 12.3433 10.1202C12.234 10.3954 12.2054 10.6983 12.2611 10.9905C12.3168 11.2826 12.4543 11.551 12.6562 11.7617C12.858 11.9723 13.1152 12.1158 13.3952 12.1739C13.6752 12.232 13.9655 12.2022 14.2292 12.0882C14.493 11.9742 14.7184 11.7811 14.877 11.5334C15.0356 11.2857 15.1203 10.9945 15.1203 10.6966C15.1198 10.2973 14.9676 9.91445 14.697 9.63208C14.4264 9.34971 14.0595 9.19088 13.6768 9.19043ZM13.6768 11.5466C13.5157 11.5466 13.3583 11.4967 13.2243 11.4033C13.0904 11.3099 12.986 11.1772 12.9243 11.0219C12.8627 10.8666 12.8465 10.6957 12.878 10.5308C12.9094 10.3659 12.987 10.2145 13.1009 10.0956C13.2148 9.97676 13.3599 9.89581 13.5179 9.86301C13.6759 9.83022 13.8397 9.84705 13.9885 9.91138C14.1374 9.97571 14.2646 10.0846 14.3541 10.2244C14.4436 10.3642 14.4914 10.5285 14.4914 10.6966C14.4912 10.922 14.4053 11.138 14.2526 11.2974C14.0999 11.4568 13.8928 11.5464 13.6768 11.5466Z" fill="#BDA988"/>
<path d="M18.03 9.19043C17.7445 9.19039 17.4655 9.2787 17.2281 9.44418C16.9907 9.60966 16.8056 9.84488 16.6964 10.1201C16.5871 10.3953 16.5585 10.6982 16.6141 10.9904C16.6698 11.2825 16.8073 11.5509 17.0091 11.7616C17.211 11.9723 17.4682 12.1157 17.7482 12.1739C18.0282 12.232 18.3184 12.2022 18.5822 12.0882C18.846 11.9742 19.0714 11.7811 19.23 11.5334C19.3886 11.2857 19.4733 10.9945 19.4733 10.6966C19.4729 10.2973 19.3207 9.91446 19.0502 9.63209C18.7796 9.34971 18.4127 9.19088 18.03 9.19043ZM18.03 11.5466C17.8689 11.5466 17.7114 11.4968 17.5775 11.4034C17.4435 11.31 17.3391 11.1773 17.2774 11.022C17.2157 10.8667 17.1996 10.6958 17.231 10.5309C17.2624 10.366 17.3399 10.2146 17.4538 10.0957C17.5677 9.97681 17.7129 9.89584 17.8709 9.86303C18.0289 9.83022 18.1927 9.84704 18.3415 9.91136C18.4904 9.97569 18.6176 10.0846 18.7071 10.2244C18.7966 10.3642 18.8444 10.5285 18.8444 10.6966C18.8442 10.9219 18.7583 11.138 18.6057 11.2973C18.453 11.4567 18.246 11.5463 18.03 11.5466Z" fill="#BDA988"/>
<path d="M4.9682 13.5938C4.68267 13.5937 4.40354 13.682 4.16611 13.8475C3.92868 14.013 3.74362 14.2483 3.63434 14.5236C3.52505 14.7988 3.49645 15.1017 3.55214 15.394C3.60784 15.6862 3.74533 15.9546 3.94724 16.1653C4.14914 16.376 4.40638 16.5194 4.68643 16.5776C4.96648 16.6357 5.25676 16.6058 5.52055 16.4918C5.78434 16.3778 6.0098 16.1847 6.16842 15.9369C6.32703 15.6892 6.41167 15.3979 6.41163 15.0999C6.4112 14.7006 6.25899 14.3178 5.98839 14.0354C5.71779 13.753 5.35089 13.5942 4.9682 13.5938ZM4.9682 15.9501C4.80706 15.9501 4.64953 15.9003 4.51553 15.8069C4.38153 15.7135 4.27708 15.5807 4.21539 15.4254C4.1537 15.2701 4.13754 15.0991 4.16895 14.9342C4.20037 14.7693 4.27795 14.6178 4.39188 14.4989C4.50581 14.38 4.65097 14.299 4.80902 14.2662C4.96706 14.2333 5.13088 14.2502 5.27976 14.3145C5.42863 14.3788 5.55588 14.4878 5.64541 14.6276C5.73494 14.7674 5.78273 14.9318 5.78273 15.0999C5.7823 15.3251 5.69632 15.541 5.54364 15.7002C5.39096 15.8594 5.18403 15.9489 4.9682 15.9491V15.9501Z" fill="#BDA988"/>
<path d="M9.32319 13.5938C9.03765 13.5937 8.75852 13.682 8.52109 13.8475C8.28366 14.013 8.0986 14.2483 7.98932 14.5236C7.88003 14.7988 7.85143 15.1017 7.90712 15.394C7.96282 15.6862 8.10032 15.9546 8.30222 16.1653C8.50412 16.376 8.76137 16.5194 9.04142 16.5776C9.32147 16.6357 9.61174 16.6058 9.87554 16.4918C10.1393 16.3778 10.3648 16.1847 10.5234 15.9369C10.682 15.6892 10.7667 15.3979 10.7666 15.0999C10.7661 14.7006 10.6139 14.3178 10.3433 14.0355C10.0727 13.7531 9.70586 13.5942 9.32319 13.5938ZM9.32319 15.9501C9.16205 15.9501 9.00451 15.9003 8.87051 15.8069C8.73651 15.7135 8.63206 15.5807 8.57037 15.4254C8.50868 15.2701 8.49252 15.0991 8.52394 14.9342C8.55535 14.7693 8.63293 14.6178 8.74686 14.4989C8.86079 14.38 9.00596 14.299 9.164 14.2662C9.32204 14.2333 9.48586 14.2502 9.63474 14.3145C9.78362 14.3788 9.91087 14.4878 10.0004 14.6276C10.0899 14.7674 10.1377 14.9318 10.1377 15.0999C10.1372 15.3251 10.0512 15.541 9.89858 15.7001C9.74591 15.8593 9.539 15.9488 9.32319 15.9491V15.9501Z" fill="#BDA988"/>
<path d="M13.6782 13.5938C13.3926 13.5937 13.1135 13.682 12.8761 13.8475C12.6386 14.013 12.4536 14.2483 12.3443 14.5236C12.235 14.7988 12.2064 15.1017 12.2621 15.394C12.3178 15.6862 12.4553 15.9546 12.6572 16.1653C12.8591 16.376 13.1163 16.5194 13.3964 16.5776C13.6764 16.6357 13.9667 16.6058 14.2305 16.4918C14.4943 16.3778 14.7198 16.1847 14.8784 15.9369C15.037 15.6892 15.1216 15.3979 15.1216 15.0999C15.1211 14.7006 14.9689 14.3178 14.6983 14.0355C14.4277 13.7531 14.0608 13.5942 13.6782 13.5938ZM13.6782 15.9501C13.517 15.9501 13.3595 15.9003 13.2255 15.8069C13.0915 15.7135 12.987 15.5807 12.9253 15.4254C12.8637 15.2701 12.8475 15.0991 12.8789 14.9342C12.9103 14.7693 12.9879 14.6178 13.1018 14.4989C13.2158 14.38 13.3609 14.299 13.519 14.2662C13.677 14.2333 13.8408 14.2502 13.9897 14.3145C14.1386 14.3788 14.2658 14.4878 14.3554 14.6276C14.4449 14.7674 14.4927 14.9318 14.4927 15.0999C14.4923 15.3251 14.4063 15.541 14.2536 15.7002C14.1009 15.8594 13.894 15.9489 13.6782 15.9491V15.9501Z" fill="#BDA988"/>
<path d="M18.028 13.5938C17.7424 13.5937 17.4633 13.682 17.2258 13.8475C16.9884 14.0129 16.8033 14.2482 16.694 14.5234C16.5846 14.7987 16.556 15.1016 16.6117 15.3938C16.6674 15.6861 16.8048 15.9545 17.0067 16.1652C17.2086 16.3759 17.4659 16.5194 17.7459 16.5776C18.026 16.6357 18.3163 16.6058 18.5801 16.4918C18.8439 16.3778 19.0694 16.1847 19.228 15.9369C19.3866 15.6892 19.4712 15.3979 19.4712 15.0999C19.4708 14.7006 19.3186 14.3178 19.048 14.0355C18.7775 13.7531 18.4106 13.5942 18.028 13.5938ZM18.028 15.9501C17.8668 15.9501 17.7093 15.9003 17.5752 15.807C17.4412 15.7136 17.3367 15.5809 17.275 15.4255C17.2133 15.2702 17.1971 15.0992 17.2285 14.9343C17.2599 14.7694 17.3375 14.6179 17.4514 14.4989C17.5653 14.38 17.7105 14.299 17.8685 14.2662C18.0266 14.2333 18.1904 14.2502 18.3393 14.3145C18.4882 14.3788 18.6154 14.4878 18.705 14.6276C18.7945 14.7674 18.8423 14.9318 18.8423 15.0999C18.8419 15.3251 18.7559 15.5409 18.6033 15.7001C18.4506 15.8593 18.2438 15.9488 18.028 15.9491V15.9501Z" fill="#BDA988"/>
<path d="M4.97077 17.9951C4.68529 17.9951 4.40622 18.0835 4.16885 18.249C3.93148 18.4145 3.74647 18.6497 3.63722 18.9249C3.52797 19.2001 3.49938 19.503 3.55508 19.7951C3.61077 20.0873 3.74825 20.3557 3.95011 20.5663C4.15198 20.777 4.40918 20.9204 4.68917 20.9785C4.96917 21.0367 5.2594 21.0068 5.52315 20.8928C5.7869 20.7788 6.01233 20.5858 6.17094 20.3381C6.32955 20.0904 6.4142 19.7992 6.4142 19.5013C6.41382 19.102 6.26162 18.7191 5.99101 18.4367C5.7204 18.1543 5.35348 17.9955 4.97077 17.9951ZM4.97077 20.3512C4.80968 20.3512 4.6522 20.3014 4.51825 20.208C4.3843 20.1146 4.2799 19.9819 4.21825 19.8266C4.1566 19.6713 4.14047 19.5004 4.1719 19.3355C4.20333 19.1706 4.28091 19.0192 4.39482 18.9003C4.50873 18.7814 4.65387 18.7005 4.81187 18.6677C4.96987 18.6349 5.13364 18.6517 5.28248 18.7161C5.43131 18.7804 5.55852 18.8893 5.64802 19.0291C5.73753 19.1689 5.7853 19.3332 5.7853 19.5013C5.78511 19.7267 5.69923 19.9427 5.54652 20.1021C5.39381 20.2614 5.18674 20.351 4.97077 20.3512Z" fill="#BDA988"/>
<path d="M9.32527 17.9951C9.03978 17.9951 8.76071 18.0835 8.52334 18.249C8.28597 18.4145 8.10096 18.6497 7.99171 18.9249C7.88246 19.2001 7.85388 19.503 7.90957 19.7951C7.96527 20.0873 8.10274 20.3557 8.30461 20.5663C8.50648 20.777 8.76367 20.9204 9.04367 20.9785C9.32367 21.0367 9.61389 21.0068 9.87765 20.8928C10.1414 20.7788 10.3668 20.5858 10.5254 20.3381C10.684 20.0904 10.7687 19.7992 10.7687 19.5013C10.7683 19.102 10.6161 18.7191 10.3455 18.4368C10.0749 18.1544 9.70796 17.9956 9.32527 17.9951ZM9.32527 20.3512C9.16417 20.3512 9.00669 20.3014 8.87274 20.208C8.73879 20.1146 8.6344 19.9819 8.57275 19.8266C8.5111 19.6713 8.49497 19.5004 8.52639 19.3355C8.55782 19.1706 8.6354 19.0192 8.74931 18.9003C8.86323 18.7814 9.00836 18.7005 9.16636 18.6677C9.32436 18.6349 9.48814 18.6517 9.63697 18.7161C9.78581 18.7804 9.91302 18.8893 10.0025 19.0291C10.092 19.1689 10.1398 19.3332 10.1398 19.5013C10.1396 19.7266 10.0537 19.9427 9.90096 20.102C9.74826 20.2614 9.54122 20.351 9.32527 20.3512Z" fill="#BDA988"/>
<path d="M13.6768 17.9951C13.3914 17.9951 13.1123 18.0835 12.8749 18.249C12.6375 18.4145 12.4525 18.6497 12.3433 18.9249C12.234 19.2001 12.2054 19.503 12.2611 19.7951C12.3168 20.0873 12.4543 20.3557 12.6562 20.5663C12.858 20.777 13.1152 20.9204 13.3952 20.9786C13.6752 21.0367 13.9655 21.0068 14.2292 20.8928C14.493 20.7788 14.7184 20.5858 14.877 20.3381C15.0356 20.0904 15.1203 19.7992 15.1203 19.5013C15.1198 19.102 14.9676 18.7191 14.697 18.4368C14.4264 18.1544 14.0595 17.9956 13.6768 17.9951ZM13.6768 20.3512C13.5157 20.3512 13.3583 20.3014 13.2243 20.208C13.0904 20.1146 12.986 19.9819 12.9243 19.8266C12.8627 19.6713 12.8465 19.5004 12.878 19.3355C12.9094 19.1706 12.987 19.0192 13.1009 18.9003C13.2148 18.7814 13.3599 18.7005 13.5179 18.6677C13.6759 18.6349 13.8397 18.6517 13.9885 18.7161C14.1374 18.7804 14.2646 18.8893 14.3541 19.0291C14.4436 19.1689 14.4914 19.3332 14.4914 19.5013C14.4912 19.7267 14.4053 19.9427 14.2526 20.1021C14.0999 20.2614 13.8928 20.351 13.6768 20.3512Z" fill="#BDA988"/>
<path d="M18.03 17.9951C17.7445 17.9951 17.4655 18.0834 17.2281 18.2489C16.9907 18.4143 16.8056 18.6496 16.6964 18.9248C16.5871 19.2 16.5585 19.5028 16.6141 19.795C16.6698 20.0872 16.8073 20.3556 17.0091 20.5663C17.211 20.7769 17.4682 20.9204 17.7482 20.9785C18.0282 21.0367 18.3184 21.0069 18.5822 20.8929C18.846 20.7789 19.0714 20.5858 19.23 20.3381C19.3886 20.0904 19.4733 19.7992 19.4733 19.5013C19.4729 19.102 19.3207 18.7191 19.0502 18.4368C18.7796 18.1544 18.4127 17.9956 18.03 17.9951ZM18.03 20.3512C17.8689 20.3513 17.7114 20.3015 17.5775 20.2081C17.4435 20.1147 17.3391 19.982 17.2774 19.8267C17.2157 19.6714 17.1996 19.5005 17.231 19.3356C17.2624 19.1707 17.3399 19.0193 17.4538 18.9004C17.5677 18.7815 17.7129 18.7005 17.8709 18.6677C18.0289 18.6349 18.1927 18.6517 18.3415 18.716C18.4904 18.7804 18.6176 18.8893 18.7071 19.0291C18.7966 19.1689 18.8444 19.3332 18.8444 19.5013C18.8442 19.7266 18.7583 19.9427 18.6057 20.102C18.453 20.2614 18.246 20.351 18.03 20.3512Z" fill="#BDA988"/>
</svg>
