<svg width="23" height="23" viewBox="0 0 23 23" fill="none" xmlns="http://www.w3.org/2000/svg">
<path d="M16.0362 7.06543C15.9528 7.06547 15.8729 7.09862 15.814 7.15759L10.3386 12.6329L7.18761 9.4817C7.12756 9.4249 7.04804 9.39325 6.96538 9.39325C6.88272 9.39325 6.8032 9.4249 6.74316 9.4817L5.47286 10.7522C5.41395 10.8111 5.38086 10.8911 5.38086 10.9744C5.38086 11.0577 5.41395 11.1377 5.47286 11.1966L10.117 15.8404C10.1461 15.8696 10.1808 15.8928 10.2189 15.9086C10.257 15.9244 10.2979 15.9325 10.3392 15.9325C10.3805 15.9325 10.4213 15.9244 10.4595 15.9086C10.4976 15.8928 10.5322 15.8696 10.5614 15.8404L17.5287 8.87252C17.5876 8.81353 17.6207 8.73357 17.6207 8.6502C17.6207 8.56683 17.5876 8.48687 17.5287 8.42789L16.2584 7.15759C16.1995 7.09862 16.1196 7.06547 16.0362 7.06543ZM10.3386 15.1735L6.13972 10.9744L6.9661 10.148L10.117 13.2996C10.1461 13.3288 10.1808 13.352 10.2189 13.3678C10.257 13.3836 10.2979 13.3918 10.3392 13.3918C10.3805 13.3918 10.4213 13.3836 10.4595 13.3678C10.4976 13.352 10.5322 13.3288 10.5614 13.2996L16.0362 7.82445L16.8626 8.65083L10.3386 15.1735Z" fill="#BDA988"/>
<path d="M11.499 2.93652C9.80533 2.93652 8.14967 3.43877 6.74141 4.37974C5.33316 5.32072 4.23556 6.65816 3.58741 8.22294C2.93926 9.78772 2.76967 11.5096 3.1001 13.1707C3.43052 14.8319 4.24611 16.3578 5.44373 17.5554C6.64136 18.753 8.16722 19.5686 9.82837 19.8991C11.4895 20.2295 13.2114 20.0599 14.7761 19.4118C16.3409 18.7636 17.6783 17.666 18.6193 16.2577C19.5603 14.8495 20.0625 13.1938 20.0625 11.5001C20.0599 9.22966 19.1569 7.05298 17.5515 5.44756C15.9461 3.84214 13.7694 2.93909 11.499 2.93652ZM11.499 19.4348C9.92969 19.4348 8.3956 18.9695 7.09074 18.0976C5.78588 17.2257 4.76887 15.9865 4.16831 14.5366C3.56775 13.0867 3.41062 11.4913 3.71678 9.95207C4.02295 8.41288 4.77865 6.99904 5.88834 5.88934C6.99803 4.77964 8.41186 4.02393 9.95104 3.71776C11.4902 3.4116 13.0856 3.56873 14.5355 4.1693C15.9854 4.76986 17.2246 5.78688 18.0965 7.09175C18.9684 8.39661 19.4337 9.93072 19.4337 11.5001C19.4314 13.6038 18.5946 15.6206 17.1071 17.1082C15.6196 18.5957 13.6027 19.4325 11.499 19.4348Z" fill="#BDA988"/>
<path d="M22.6432 12.5085C22.8741 12.2231 23 11.8672 23 11.5001C23 11.133 22.8741 10.7771 22.6432 10.4917L22.128 9.84859C22.0292 9.72516 21.9616 9.57977 21.9309 9.42471C21.9002 9.26965 21.9072 9.10947 21.9514 8.9577L22.1813 8.16886C22.2823 7.81613 22.2608 7.43959 22.1203 7.10065C21.9799 6.7617 21.7287 6.48036 21.4078 6.30249L20.6879 5.90726C20.5493 5.83132 20.4309 5.72311 20.3429 5.59178C20.2549 5.46045 20.1998 5.30985 20.1822 5.15273L20.0924 4.33443C20.054 3.96921 19.8913 3.62826 19.6316 3.36859C19.372 3.10892 19.031 2.94626 18.6658 2.90783L17.8475 2.818C17.6904 2.80053 17.5398 2.74546 17.4085 2.65747C17.2771 2.56947 17.1689 2.45114 17.093 2.31247L16.6978 1.59244C16.5226 1.2689 16.2416 1.01545 15.9017 0.874598C15.5618 0.733746 15.1839 0.714068 14.8312 0.818866L14.0426 1.04864C13.8907 1.09276 13.7305 1.09974 13.5754 1.06897C13.4203 1.03821 13.2748 0.970604 13.1513 0.871863L12.5082 0.356628C12.2228 0.125879 11.8668 0 11.4998 0C11.1328 0 10.7769 0.125879 10.4915 0.356628L9.84832 0.871863C9.72476 0.970396 9.57938 1.03786 9.42437 1.06858C9.26936 1.09931 9.10923 1.09241 8.95744 1.04846L8.1686 0.818507C7.81588 0.717457 7.43931 0.738929 7.10036 0.87942C6.7614 1.01991 6.48006 1.27113 6.30224 1.59208L5.90701 2.31193C5.83107 2.4506 5.72286 2.56895 5.59153 2.65697C5.4602 2.74499 5.30961 2.80011 5.15249 2.81765L4.33419 2.90747C3.96898 2.9459 3.62803 3.10856 3.36836 3.36823C3.10869 3.6279 2.94604 3.96885 2.90761 4.33407L2.81778 5.15237C2.8003 5.30949 2.74524 5.46009 2.65724 5.59143C2.56925 5.72276 2.45091 5.83097 2.31225 5.9069L1.59222 6.30213C1.26876 6.47734 1.01537 6.75843 0.87453 7.09826C0.73369 7.4381 0.713962 7.81603 0.818655 8.16868L1.04878 8.95717C1.09291 9.10901 1.09988 9.26924 1.06912 9.42435C1.03835 9.57946 0.970751 9.7249 0.872011 9.84841L0.35678 10.4916C0.125938 10.7769 0 11.1329 0 11.4999C0 11.867 0.125938 12.2229 0.35678 12.5083L0.872011 13.1514C0.970771 13.2749 1.03837 13.4203 1.06911 13.5753C1.09985 13.7304 1.09281 13.8906 1.04861 14.0423L0.818655 14.8312C0.717598 15.1839 0.739025 15.5604 0.879444 15.8994C1.01986 16.2384 1.27099 16.5198 1.59186 16.6977L2.31171 17.0929C2.45038 17.1689 2.56873 17.2771 2.65675 17.4084C2.74477 17.5398 2.79988 17.6904 2.81742 17.8475L2.90725 18.6658C2.94568 19.031 3.10833 19.3719 3.368 19.6316C3.62767 19.8913 3.96862 20.0539 4.33383 20.0924L5.15213 20.1822C5.30925 20.1997 5.45985 20.2547 5.59118 20.3427C5.72252 20.4307 5.83073 20.5491 5.90665 20.6877L6.30188 21.4078C6.47701 21.7313 6.75809 21.9848 7.09795 22.1256C7.43781 22.2665 7.81578 22.2861 8.16842 22.1813L8.9569 21.9512C9.10876 21.9072 9.26896 21.9003 9.42404 21.9311C9.57912 21.9618 9.72456 22.0294 9.84813 22.128L10.4913 22.6432C10.7767 22.8741 11.1326 23 11.4996 23C11.8667 23 12.2226 22.8741 12.508 22.6432L13.1511 22.128C13.2746 22.0293 13.42 21.9617 13.575 21.931C13.7301 21.9002 13.8903 21.9072 14.042 21.9514L14.8309 22.1813C15.1835 22.286 15.5614 22.2663 15.9012 22.1254C16.241 21.9846 16.522 21.7312 16.6972 21.4078L17.0925 20.6879C17.1684 20.5492 17.2766 20.4309 17.4079 20.3429C17.5393 20.2549 17.6899 20.1997 17.847 20.1822L18.6653 20.0924C19.0305 20.0539 19.3714 19.8913 19.6311 19.6316C19.8908 19.3719 20.0534 19.031 20.0919 18.6658L20.1817 17.8475C20.1992 17.6904 20.2542 17.5398 20.3422 17.4084C20.4302 17.2771 20.5485 17.1689 20.6872 17.0929L21.4072 16.6977C21.7307 16.5225 21.9841 16.2414 22.1249 15.9016C22.2658 15.5617 22.2855 15.1838 22.1808 14.8312L21.9507 14.0427C21.9066 13.8908 21.8996 13.7306 21.9303 13.5755C21.9611 13.4204 22.0287 13.275 22.1275 13.1514L22.6432 12.5085ZM21.6372 12.7587C21.4754 12.9611 21.3646 13.1993 21.3142 13.4535C21.2638 13.7076 21.2753 13.9701 21.3476 14.2189L21.5779 15.0074C21.6418 15.2226 21.6297 15.4532 21.5437 15.6605C21.4578 15.8678 21.3032 16.0393 21.1058 16.1462L20.3856 16.5414C20.1582 16.666 19.9642 16.8436 19.8201 17.0591C19.6759 17.2746 19.5858 17.5217 19.5574 17.7794L19.4676 18.5977C19.444 18.8205 19.3447 19.0285 19.1863 19.1869C19.0278 19.3454 18.8198 19.4447 18.597 19.4683L17.7785 19.5581C17.5208 19.5866 17.2738 19.6768 17.0584 19.821C16.8429 19.9652 16.6654 20.1591 16.5408 20.3865L16.1455 21.1065C16.0386 21.3037 15.8671 21.4583 15.6598 21.5442C15.4526 21.6302 15.2221 21.6423 15.0069 21.5786L14.2183 21.3485C13.9695 21.276 13.707 21.2645 13.4529 21.3148C13.1988 21.3652 12.9605 21.476 12.7583 21.6379L12.1151 22.1531C11.941 22.2941 11.7237 22.371 11.4996 22.371C11.2756 22.371 11.0583 22.2941 10.8842 22.1531L10.241 21.6379C10.0387 21.4761 9.80042 21.3653 9.54629 21.3149C9.29215 21.2645 9.02962 21.2759 8.78085 21.3483L7.99255 21.5784C7.77737 21.6421 7.54686 21.6299 7.33958 21.544C7.1323 21.458 6.9608 21.3035 6.85376 21.1063L6.45853 20.3861C6.33392 20.1587 6.15635 19.9648 5.94085 19.8206C5.72536 19.6764 5.47829 19.5863 5.22058 19.5579L4.40228 19.4681C4.17946 19.4445 3.97147 19.3452 3.81303 19.1868C3.65459 19.0283 3.55529 18.8203 3.5317 18.5975L3.44188 17.779C3.41337 17.5213 3.3232 17.2743 3.17901 17.0589C3.03483 16.8434 2.84086 16.6659 2.61352 16.5412L1.89349 16.146C1.69772 16.0375 1.54448 15.8659 1.45878 15.6591C1.37307 15.4523 1.35995 15.2226 1.42155 15.0074L1.65168 14.2187C1.7241 13.97 1.73561 13.7075 1.68524 13.4534C1.63487 13.1993 1.52409 12.961 1.36227 12.7587L0.84668 12.1156C0.705796 11.9414 0.628937 11.7241 0.628937 11.5001C0.628937 11.2761 0.705796 11.0588 0.84668 10.8846L1.36191 10.2415C1.52373 10.0391 1.63451 9.80086 1.68491 9.54673C1.73531 9.29259 1.72385 9.03007 1.6515 8.78129L1.42155 7.99281C1.35771 7.77763 1.36978 7.54705 1.45574 7.33972C1.54169 7.13238 1.69631 6.9609 1.89367 6.85401L2.61388 6.45878C2.84124 6.33417 3.03522 6.15659 3.17939 5.9411C3.32355 5.7256 3.41365 5.47853 3.44206 5.22082L3.53188 4.40251C3.55564 4.1796 3.65517 3.97158 3.81385 3.81323C3.97253 3.65487 4.18075 3.55577 4.40372 3.53247L5.22219 3.44265C5.47987 3.41414 5.72689 3.32397 5.94235 3.17978C6.1578 3.03559 6.33535 2.84162 6.45997 2.61428L6.8552 1.89425C6.96367 1.69873 7.13507 1.54564 7.34156 1.45986C7.54804 1.37408 7.77747 1.36066 7.99255 1.42177L8.7812 1.6519C9.02993 1.72435 9.29243 1.73587 9.54655 1.6855C9.80067 1.63513 10.0389 1.52433 10.2412 1.36249L10.8843 0.846891C11.0585 0.705975 11.2758 0.629095 11.4998 0.629095C11.7239 0.629095 11.9411 0.705975 12.1153 0.846891L12.7584 1.36213C12.9608 1.52385 13.1991 1.63457 13.4532 1.68497C13.7073 1.73536 13.9698 1.72396 14.2186 1.65172L15.0071 1.42177C15.2223 1.35817 15.4528 1.37035 15.66 1.45629C15.8673 1.54222 16.0388 1.69669 16.1459 1.89389L16.5411 2.6141C16.6657 2.84147 16.8433 3.03545 17.0588 3.17961C17.2743 3.32378 17.5214 3.41388 17.7791 3.44229L18.5974 3.53211C18.8202 3.5557 19.0282 3.655 19.1866 3.81344C19.3451 3.97188 19.4444 4.17987 19.4679 4.40269L19.5578 5.22118C19.5863 5.47886 19.6764 5.72588 19.8206 5.94133C19.9648 6.15679 20.1588 6.33434 20.3861 6.45896L21.1062 6.85419C21.3019 6.9627 21.4552 7.13433 21.5409 7.3411C21.6267 7.54788 21.6398 7.77759 21.5783 7.99281L21.3481 8.78147C21.2757 9.0302 21.2642 9.2927 21.3146 9.54681C21.365 9.80092 21.4757 10.0392 21.6376 10.2415L22.1528 10.8846C22.2937 11.0588 22.3705 11.2761 22.3705 11.5001C22.3705 11.7241 22.2937 11.9414 22.1528 12.1156L21.6372 12.7587Z" fill="#BDA988"/>
</svg>
