<svg width="23" height="23" viewBox="0 0 23 23" fill="none" xmlns="http://www.w3.org/2000/svg">
<g clip-path="url(#clip0)">
<path d="M22.0879 5.07489L11.6451 0.0334893C11.5525 -0.0111631 11.4447 -0.0111631 11.3521 0.0334893L0.909174 5.07489C0.792736 5.13109 0.71875 5.24901 0.71875 5.37829V17.6217C0.71875 17.751 0.792736 17.8689 0.909174 17.9251L11.3521 22.9665C11.3983 22.9888 11.4485 23 11.4986 23C11.5486 23 11.5987 22.9888 11.6451 22.9665L22.0879 17.9251C22.2044 17.8689 22.2784 17.751 22.2784 17.6217V5.37834C22.2784 5.24896 22.2043 5.13113 22.0879 5.07489ZM11.4986 0.711046L21.1665 5.37829L18.364 6.73125C18.3462 6.71773 18.3275 6.70524 18.3069 6.69531L8.70465 2.05983L11.4986 0.711046ZM7.94376 2.44076L17.5976 7.10123L15.6204 8.05577L5.97052 3.39719L7.94376 2.44076ZM17.8235 7.74038V11.2688L15.9766 12.1604V8.63199L17.8235 7.74038ZM21.6045 17.4103L11.8355 22.1263V10.6311L14.1657 9.50621C14.3333 9.42531 14.4035 9.22392 14.3226 9.05632C14.2417 8.8888 14.0403 8.81846 13.8727 8.89941L11.4986 10.0456L10.5644 9.59457C10.3968 9.51358 10.1954 9.58393 10.1145 9.75148C10.0336 9.91904 10.1038 10.1205 10.2714 10.2014L11.1616 10.6311V22.1263L1.39258 17.4102V5.91507L8.83164 9.50634C8.87885 9.52917 8.92876 9.53995 8.97786 9.53995C9.1031 9.53995 9.2234 9.46978 9.28149 9.34943C9.36239 9.18187 9.29213 8.98044 9.12458 8.89954L1.83061 5.37829L5.17752 3.76254L15.2981 8.64838C15.2996 8.65045 15.3013 8.65229 15.3028 8.65431V12.6972C15.3028 12.8132 15.3624 12.9209 15.4606 12.9826C15.5152 13.0169 15.5774 13.0341 15.6398 13.0341C15.6897 13.0341 15.7398 13.0231 15.7862 13.0006L18.3069 11.7837C18.4234 11.7276 18.4973 11.6097 18.4973 11.4803V7.41514L21.6045 5.91511V17.4103Z" fill="#BDA988"/>
<path d="M4.1742 16.1035L2.64169 15.3637C2.47404 15.2827 2.2727 15.3531 2.19179 15.5206C2.11089 15.6882 2.18115 15.8896 2.34871 15.9705L3.88121 16.7103C3.92843 16.7331 3.97834 16.7439 4.02743 16.7439C4.15268 16.7439 4.27298 16.6738 4.33106 16.5534C4.41201 16.3858 4.34175 16.1845 4.1742 16.1035Z" fill="#BDA988"/>
<path d="M5.58491 15.1857L2.6441 13.766C2.4765 13.6851 2.27511 13.7554 2.19421 13.923C2.11335 14.0905 2.1836 14.292 2.35116 14.3729L5.29197 15.7926C5.33918 15.8153 5.38909 15.8262 5.43819 15.8262C5.56343 15.8262 5.68374 15.756 5.74182 15.6357C5.82272 15.468 5.75247 15.2666 5.58491 15.1857Z" fill="#BDA988"/>
</g>
<defs>
<clipPath id="clip0">
<rect width="23" height="23" fill="white"/>
</clipPath>
</defs>
</svg>
