<svg width="27" height="17" viewBox="0 0 27 17" fill="none" xmlns="http://www.w3.org/2000/svg">
<path d="M13.2111 16.1375H14.8245C14.8245 16.1375 15.3122 16.0835 15.5603 15.8152C15.7898 15.5688 15.7813 15.1064 15.7813 15.1064C15.7813 15.1064 15.7493 12.9412 16.7551 12.6222C17.7457 12.3083 19.0182 14.7149 20.3666 15.6414C21.3859 16.3417 22.1606 16.1882 22.1606 16.1882L25.767 16.1375C25.767 16.1375 27.6538 16.0211 26.7593 14.5377C26.6868 14.4162 26.2378 13.4407 24.0777 11.4358C21.8163 9.3364 22.12 9.6773 24.8439 6.04722C26.5028 3.83643 27.166 2.48633 26.9585 1.90916C26.761 1.359 25.5409 1.50413 25.5409 1.50413L21.4838 1.52776C21.4838 1.52776 21.1834 1.48726 20.959 1.62058C20.7413 1.75221 20.6012 2.05599 20.6012 2.05599C20.6012 2.05599 19.9582 3.76724 19.1009 5.22197C17.2934 8.29176 16.5695 8.45377 16.2741 8.26307C15.5873 7.81923 15.7594 6.47757 15.7594 5.52574C15.7594 2.55046 16.21 1.31006 14.8801 0.989407C14.438 0.883087 14.114 0.812207 12.9849 0.800393C11.537 0.785205 10.3101 0.805456 9.61645 1.14467C9.15404 1.37081 8.79795 1.87541 9.01566 1.9041C9.28399 1.93954 9.89153 2.0678 10.2139 2.50658C10.6307 3.07194 10.6155 4.34441 10.6155 4.34441C10.6155 4.34441 10.8552 7.84623 10.0569 8.28164C9.50844 8.58035 8.75745 7.97111 7.14577 5.18484C6.32052 3.7588 5.6961 2.18087 5.6961 2.18087C5.6961 2.18087 5.57628 1.88722 5.36195 1.73028C5.10206 1.53957 4.73753 1.47882 4.73753 1.47882L0.879628 1.50245C0.879628 1.50245 0.300774 1.51932 0.0881331 1.77078C-0.100881 1.99523 0.0729445 2.45764 0.0729445 2.45764C0.0729445 2.45764 3.09379 9.52373 6.51291 13.0863C9.6502 16.3519 13.2111 16.1375 13.2111 16.1375Z" fill="#5479B0"/>
</svg>
