<svg width="22" height="22" viewBox="0 0 22 22" fill="none" xmlns="http://www.w3.org/2000/svg">
<path d="M11.0027 0H10.9973C4.93213 0 0 4.9335 0 11C0 13.4062 0.7755 15.6365 2.09413 17.4474L0.72325 21.5339L4.95138 20.1823C6.69075 21.3345 8.76562 22 11.0027 22C17.0679 22 22 17.0651 22 11C22 4.93488 17.0679 0 11.0027 0Z" fill="#4CAF50"/>
<path d="M17.4047 15.5335C17.1394 16.2829 16.0861 16.9044 15.246 17.0859C14.6712 17.2082 13.9205 17.3059 11.3932 16.2581C8.1606 14.9189 6.07885 11.634 5.9166 11.4209C5.76123 11.2077 4.61035 9.6815 4.61035 8.103C4.61035 6.5245 5.41198 5.75588 5.7351 5.42588C6.00048 5.155 6.4391 5.03125 6.85985 5.03125C6.99598 5.03125 7.11835 5.03813 7.22835 5.04363C7.55148 5.05738 7.71373 5.07663 7.92685 5.58675C8.19223 6.22613 8.83848 7.80463 8.91548 7.96688C8.99385 8.12913 9.07223 8.34913 8.96223 8.56225C8.8591 8.78225 8.76835 8.87987 8.6061 9.06687C8.44385 9.25387 8.28985 9.39687 8.1276 9.59762C7.9791 9.77225 7.81135 9.95925 7.99835 10.2824C8.18535 10.5986 8.8316 11.6532 9.7831 12.5002C11.011 13.5934 12.0065 13.9426 12.3626 14.0911C12.628 14.2011 12.9442 14.175 13.1381 13.9688C13.3842 13.7034 13.6881 13.2634 13.9975 12.8302C14.2175 12.5195 14.4952 12.481 14.7867 12.591C15.0837 12.6941 16.6554 13.471 16.9785 13.6319C17.3016 13.7941 17.5147 13.8711 17.5931 14.0072C17.6701 14.1434 17.6701 14.7827 17.4047 15.5335Z" fill="#FAFAFA"/>
</svg>
