<svg width="26" height="24" viewBox="0 0 26 24" fill="none" xmlns="http://www.w3.org/2000/svg">
<path d="M2.84172 23.4258C2.44309 23.4258 2.05867 23.3466 1.69914 23.1896C1.35789 23.0404 1.05473 22.8291 0.797775 22.5615C0.5459 22.2995 0.348361 21.9958 0.210744 21.6601C0.0710951 21.3189 0.000509108 20.9609 1.29552e-06 20.5952C-0.000506517 20.0757 0.148283 19.5629 0.430626 19.1109L10.5808 1.91637L10.5879 1.90469C10.8514 1.48422 11.2196 1.13992 11.6528 0.908867C12.0636 0.69 12.5267 0.574219 12.9924 0.574219H13H13.0076C13.4733 0.574219 13.9364 0.69 14.3472 0.908867C14.7804 1.13992 15.1486 1.48422 15.4121 1.90469L15.4192 1.91637L21.8918 12.8811V12.8816C21.9609 12.9984 21.9802 13.135 21.9461 13.266C21.9121 13.3975 21.8293 13.5077 21.7125 13.5768C21.6343 13.623 21.5455 13.6473 21.4551 13.6473C21.2758 13.6473 21.1082 13.5514 21.0173 13.3975L14.5498 2.44145C14.2096 1.90266 13.6444 1.59238 13 1.58984C12.3571 1.59238 11.7929 1.90164 11.4522 2.43789L1.30152 19.6334L1.29442 19.6451C1.11008 19.9402 1.01613 20.2596 1.01563 20.5952C1.01512 21.0579 1.2025 21.5179 1.52953 21.8571C1.87891 22.2177 2.33442 22.4091 2.84629 22.4102H23.1537C23.6656 22.4091 24.1206 22.2177 24.47 21.8571C24.7975 21.5179 24.9849 21.0579 24.9844 20.5952C24.9839 20.2601 24.8899 19.9402 24.7051 19.6451L24.6985 19.6334L23.3406 17.333C23.2715 17.2162 23.2522 17.0796 23.2863 16.9481C23.3198 16.8171 23.403 16.7064 23.5198 16.6379C23.598 16.5916 23.6869 16.5673 23.7773 16.5673C23.9566 16.5673 24.1241 16.6627 24.215 16.8166L25.5704 19.1129C25.8522 19.5639 26.0005 20.0763 26 20.5952C25.9995 20.9609 25.9289 21.3189 25.7893 21.6601C25.6516 21.9958 25.4541 22.2995 25.2017 22.5615C24.9453 22.8291 24.6421 23.0404 24.3009 23.1896C23.9413 23.3461 23.5569 23.4258 23.1583 23.4258H2.84172Z" fill="url(#paint0_linear)"/>
<path d="M22.9022 20.8867H3.09754C2.91519 20.8867 2.74685 20.789 2.65646 20.6306C2.56612 20.4722 2.56759 20.2775 2.66032 20.1206L12.5627 3.36277C12.6541 3.20814 12.8203 3.11328 12.9999 3.11328C13.1795 3.11328 13.3457 3.20814 13.4371 3.36277L23.3394 20.1206C23.4322 20.2775 23.4336 20.4722 23.3433 20.6306C23.2529 20.789 23.0846 20.8867 22.9022 20.8867ZM3.98743 19.8711H22.0123L12.9999 4.6193L3.98743 19.8711Z" fill="url(#paint1_linear)"/>
<path d="M13 18.8047C12.16 18.8047 11.4766 18.1213 11.4766 17.2812C11.4766 16.4412 12.16 15.7578 13 15.7578C13.84 15.7578 14.5234 16.4412 14.5234 17.2812C14.5234 18.1213 13.84 18.8047 13 18.8047ZM13 16.7734C12.72 16.7734 12.4922 17.0012 12.4922 17.2812C12.4922 17.5613 12.72 17.7891 13 17.7891C13.28 17.7891 13.5078 17.5613 13.5078 17.2812C13.5078 17.0012 13.28 16.7734 13 16.7734Z" fill="url(#paint2_linear)"/>
<path d="M13 14.7422C12.4435 14.7422 12.2202 14.0964 12.1247 13.8207C12.0059 13.4771 11.8908 13.0094 11.7827 12.4306C11.593 11.4156 11.4766 10.3422 11.4766 10.0195C11.4766 9.17951 12.16 8.49609 13 8.49609C13.84 8.49609 14.5234 9.17951 14.5234 10.0195C14.5234 10.3422 14.407 11.4156 14.2173 12.4306C14.1092 13.0094 13.9941 13.4771 13.8753 13.8207C13.7798 14.0964 13.5566 14.7422 13 14.7422ZM13 9.51172C12.72 9.51172 12.4922 9.73952 12.4922 10.0195C12.4922 10.2134 12.5745 11.0536 12.7316 11.9684C12.83 12.5408 12.9222 12.9401 13 13.2168C13.0777 12.9401 13.17 12.5408 13.2684 11.9684C13.4255 11.0536 13.5078 10.2134 13.5078 10.0195C13.5078 9.73952 13.28 9.51172 13 9.51172Z" fill="url(#paint3_linear)"/>
<path d="M22.6152 15.6152C22.8956 15.6152 23.123 15.3879 23.123 15.1074C23.123 14.827 22.8956 14.5996 22.6152 14.5996C22.3347 14.5996 22.1074 14.827 22.1074 15.1074C22.1074 15.3879 22.3347 15.6152 22.6152 15.6152Z" fill="url(#paint4_linear)"/>
<defs>
<linearGradient id="paint0_linear" x1="13" y1="0.574219" x2="13" y2="23.4258" gradientUnits="userSpaceOnUse">
<stop stop-color="#E8C99B"/>
<stop offset="1" stop-color="#C7A576"/>
</linearGradient>
<linearGradient id="paint1_linear" x1="12.9999" y1="3.11328" x2="12.9999" y2="20.8867" gradientUnits="userSpaceOnUse">
<stop stop-color="#E8C99B"/>
<stop offset="1" stop-color="#C7A576"/>
</linearGradient>
<linearGradient id="paint2_linear" x1="13" y1="15.7578" x2="13" y2="18.8047" gradientUnits="userSpaceOnUse">
<stop stop-color="#E8C99B"/>
<stop offset="1" stop-color="#C7A576"/>
</linearGradient>
<linearGradient id="paint3_linear" x1="13" y1="8.49609" x2="13" y2="14.7422" gradientUnits="userSpaceOnUse">
<stop stop-color="#E8C99B"/>
<stop offset="1" stop-color="#C7A576"/>
</linearGradient>
<linearGradient id="paint4_linear" x1="22.6152" y1="14.5996" x2="22.6152" y2="15.6152" gradientUnits="userSpaceOnUse">
<stop stop-color="#E8C99B"/>
<stop offset="1" stop-color="#C7A576"/>
</linearGradient>
</defs>
</svg>
