<svg width="22" height="22" viewBox="0 0 22 22" fill="none" xmlns="http://www.w3.org/2000/svg">
<path d="M2.47898 2.47675C5.76313 -0.816499 11.0952 -0.823928 14.3884 2.46022C17.5661 5.62906 17.7005 10.733 14.6942 14.0648L15.3373 14.7079C15.8569 14.1882 16.6993 14.1881 17.219 14.7077C17.219 14.7078 17.2191 14.7078 17.2192 14.7079L21.6101 19.0988C22.1297 19.6184 22.1298 20.4609 21.6102 20.9805C21.6102 20.9806 21.6101 20.9806 21.6101 20.9807L20.9829 21.6078C20.4633 22.1273 19.6211 22.1273 19.1015 21.6078L14.7106 17.2169C14.1909 16.6973 14.1908 15.8549 14.7104 15.3352C14.7105 15.3352 14.7105 15.3351 14.7106 15.335L14.0675 14.6919C10.6168 17.8103 5.29161 17.5409 2.17322 14.0903C-0.838882 10.7573 -0.704327 5.64669 2.47898 2.47675ZM15.3373 16.5893L19.7282 20.9803C19.9014 21.1534 20.1821 21.1534 20.3553 20.9803L20.9825 20.3527C21.1554 20.1795 21.1554 19.8991 20.9825 19.726L16.5916 15.335C16.4162 15.1673 16.1398 15.1673 15.9644 15.335L15.3373 15.9626C15.1644 16.1358 15.1644 16.4162 15.3373 16.5893ZM3.10568 13.7672C6.05026 16.7116 10.8243 16.7116 13.7688 13.767C16.7133 10.8224 16.7132 6.04836 13.7686 3.10389C10.8241 0.159483 6.0502 0.159483 3.10568 3.10389C0.16593 6.05047 0.16593 10.8206 3.10568 13.7672Z" fill="url(#paint0_linear)"/>
<defs>
<linearGradient id="paint0_linear" x1="10.9999" y1="0.00195312" x2="10.9999" y2="21.9974" gradientUnits="userSpaceOnUse">
<stop stop-color="#E8C99B"/>
<stop offset="1" stop-color="#C7A576"/>
</linearGradient>
</defs>
</svg>
