<svg width="22" height="22" viewBox="0 0 22 22" fill="none" xmlns="http://www.w3.org/2000/svg">
<path d="M22 11.3548V8.50764C22 7.71809 21.4918 7.03509 20.7357 6.80829L18.4516 6.12305V5.58403C19.0942 5.13459 19.5161 4.39044 19.5161 3.54873V2.48387C19.5161 1.11424 18.4019 0 17.0323 0C15.6626 0 14.5484 1.11424 14.5484 2.48387V3.54839C14.5484 4.39044 14.9703 5.13459 15.6129 5.58368V6.1227L13.6 6.72669C12.8445 6.05114 11.8821 5.67742 10.8602 5.67742C9.84244 5.67742 8.91134 6.05028 8.19178 6.66466L6.3871 6.12305V5.58403C7.02972 5.13459 7.45161 4.39044 7.45161 3.54873V2.48387C7.45161 1.11424 6.33737 0 4.96774 0C3.59811 0 2.48387 1.11424 2.48387 2.48387V3.54839C2.48387 4.39044 2.90576 5.13459 3.54839 5.58368V6.1227L1.26429 6.80795C0.508175 7.03509 0 7.71809 0 8.50764V11.3548H0.709677V8.50764C0.709677 8.03394 1.01444 7.62401 1.46839 7.48817L3.75318 6.80258C3.95971 7.07078 4.35925 7.45161 4.96774 7.45161C5.57623 7.45161 5.97577 7.07078 6.1823 6.80258L7.63752 7.23902C7.17561 7.81997 6.8679 8.52704 6.77451 9.30066C6.32143 8.81916 5.67984 8.51613 4.96774 8.51613C3.59811 8.51613 2.48387 9.63037 2.48387 11V12.0645C2.48387 12.9066 2.90576 13.6507 3.54839 14.0998V14.6388L1.26429 15.3241C0.508175 15.5512 0 16.2342 0 17.0238V20.2258H4.25806C4.4535 20.2258 4.6129 20.3852 4.6129 20.5806V22H17.3871V20.5806C17.3871 20.3852 17.5465 20.2258 17.7419 20.2258H22V17.0238C22 16.2342 21.4918 15.5512 20.7357 15.3244L18.4516 14.6392V14.1002C19.0942 13.6507 19.5161 12.9066 19.5161 12.0649V11.0003C19.5161 9.63072 18.4019 8.51648 17.0323 8.51648C16.3375 8.51648 15.7094 8.80392 15.2581 9.26514V8.92884C15.2581 8.228 14.8772 7.59715 14.283 7.26362L15.8177 6.80292C16.0242 7.07078 16.4238 7.45161 17.0323 7.45161C17.6408 7.45161 18.0403 7.07078 18.2468 6.80258L20.532 7.48817C20.9856 7.62401 21.2903 8.03394 21.2903 8.50764V11.3548H22ZM4.96774 0.709677C5.94597 0.709677 6.74194 1.50564 6.74194 2.48387H5.11467C4.88925 2.48387 4.66817 2.39239 4.50895 2.23299L4.25806 1.98211L4.00718 2.23299C3.84796 2.39239 3.62687 2.48387 3.40146 2.48387H3.19355C3.19355 1.50564 3.98951 0.709677 4.96774 0.709677ZM3.19355 3.54839V3.19355H3.40146C3.71056 3.19355 4.0058 3.10484 4.25806 2.9392C4.51033 3.10484 4.80557 3.19355 5.11467 3.19355H6.74194V3.54839C6.74194 4.52662 5.94597 5.32258 4.96774 5.32258C3.98951 5.32258 3.19355 4.52662 3.19355 3.54839ZM4.96774 6.74194C4.59055 6.74194 4.34608 6.42504 4.25806 6.28955V5.92795C4.48296 5.99501 4.72119 6.03226 4.96774 6.03226C5.21429 6.03226 5.45253 5.99501 5.67742 5.92761V6.2892C5.5894 6.42539 5.34493 6.74194 4.96774 6.74194ZM14.7215 12.97C14.9022 13.4289 15.2141 13.8214 15.6129 14.1002V14.6392L13.3291 15.3244C13.254 15.3468 13.1808 15.3759 13.1095 15.4081L12.7742 15.3308V14.6317C13.1535 14.327 13.4523 13.9267 13.6358 13.4679C14.0445 13.4321 14.4278 13.2581 14.7215 12.97ZM11 15.2581C11.3765 15.2581 11.7357 15.1829 12.0645 15.0491V15.4355L11 16.2339L9.93548 15.4355V15.0491C10.2643 15.1829 10.6235 15.2581 11 15.2581ZM9.49973 15.9958L10.3648 16.6448L9.47496 17.1788L9.24989 16.0537L9.49973 15.9958ZM10.6079 18.8065H11.3921L11.6681 21.2903H10.3319L10.6079 18.8065ZM11.4538 18.0968H10.5459L10.3421 17.4857L11 17.0912L11.6575 17.4857L11.4538 18.0968ZM11.6352 16.6448L12.5003 15.9958L12.7501 16.0533L12.525 17.1785L11.6352 16.6448ZM14.2717 12.4258C14.1488 12.5606 13.9927 12.655 13.8235 12.7125C13.8333 12.616 13.8387 12.5183 13.8387 12.4194V10.7214C14.2206 10.8662 14.5047 11.2022 14.543 11.6036C14.5721 11.9091 14.476 12.2007 14.2717 12.4258ZM13.129 12.4194C13.129 13.5935 12.1742 14.5484 11 14.5484C9.82581 14.5484 8.87097 13.5935 8.87097 12.4194V10.6452H10.0757C10.8489 10.6452 11.6014 10.4521 12.2742 10.0834L12.5548 10.6452H13.129V12.4194ZM8.17654 12.7125C8.00726 12.655 7.85115 12.5606 7.72831 12.4258C7.52404 12.201 7.42788 11.9091 7.45698 11.604C7.49527 11.2025 7.77942 10.8662 8.16129 10.7217V12.4194C8.16129 12.5183 8.16666 12.616 8.17654 12.7125ZM8.36418 13.4679C8.54732 13.9267 8.84619 14.327 9.22581 14.6317V15.3308L8.89055 15.4081C8.81882 15.3759 8.74605 15.3471 8.6712 15.3244L6.3871 14.6392V14.1002C6.7856 13.8214 7.09781 13.4289 7.27852 12.97C7.5722 13.2581 7.95546 13.4321 8.36418 13.4679ZM4.96774 9.22581C5.94597 9.22581 6.74194 10.0218 6.74194 11H6.53402C6.30861 11 6.08753 10.9085 5.9283 10.7491L5.67742 10.4982L5.42654 10.7491C5.26731 10.9085 5.04623 11 4.82082 11H3.19355C3.19355 10.0218 3.98951 9.22581 4.96774 9.22581ZM3.19355 12.0645V11.7097H4.82082C5.12991 11.7097 5.42515 11.621 5.67742 11.4553C5.92969 11.621 6.22492 11.7097 6.53402 11.7097H6.74194V12.0645C6.74194 13.0427 5.94597 13.8387 4.96774 13.8387C3.98951 13.8387 3.19355 13.0427 3.19355 12.0645ZM4.96774 14.5484C5.21429 14.5484 5.45253 14.5111 5.67742 14.4437V14.8053C5.5894 14.9415 5.34493 15.2581 4.96774 15.2581C4.59055 15.2581 4.34608 14.9412 4.25806 14.8057V14.4441C4.48296 14.5111 4.72119 14.5484 4.96774 14.5484ZM4.25806 19.5161H2.83871V17.0323H2.12903V19.5161H0.709677V17.0238C0.709677 16.5501 1.01444 16.1401 1.46839 16.0043L3.75318 15.3187C3.95971 15.5869 4.35925 15.9677 4.96774 15.9677C5.57623 15.9677 5.97577 15.5869 6.1823 15.3187L7.52785 15.7226L6.53818 15.9508C5.40453 16.2126 4.6129 17.2079 4.6129 18.371V18.8065H5.32258V18.371C5.32258 17.5401 5.88828 16.8294 6.69793 16.6422L8.55806 16.2129L8.97631 18.305L9.71873 17.8598L9.92873 18.4899L9.6179 21.2903H7.80645V18.4516H7.09677V21.2903H5.32258V20.5806C5.32258 19.9938 4.8449 19.5161 4.25806 19.5161ZM20.5316 16.0043C20.9856 16.1401 21.2903 16.5501 21.2903 17.0238V19.5161H19.871V17.0323H19.1613V19.5161H17.7419C17.1551 19.5161 16.6774 19.9938 16.6774 20.5806V21.2903H14.9032V18.4516H14.1935V21.2903H12.3821L12.0709 18.4899L12.2809 17.8598L13.0233 18.305L13.4416 16.2129L15.3021 16.6422C16.1117 16.8294 16.6774 17.5401 16.6774 18.371V18.8065H17.3871V18.371C17.3871 17.2079 16.5955 16.2126 15.4618 15.9508L14.4722 15.7226L15.8177 15.3187C16.0242 15.5869 16.4238 15.9677 17.0323 15.9677C17.6408 15.9677 18.0403 15.5869 18.2468 15.3187L20.5316 16.0043ZM17.7419 14.8057C17.6539 14.9415 17.4094 15.2581 17.0323 15.2581C16.6544 15.2581 16.4096 14.9401 16.3226 14.8057V14.4437C16.5475 14.5111 16.7857 14.5484 17.0323 14.5484C17.2788 14.5484 17.517 14.5111 17.7419 14.4437V14.8057ZM17.0323 13.8387C16.054 13.8387 15.2581 13.0427 15.2581 12.0645V11.7097H15.466C15.7751 11.7097 16.0703 11.621 16.3226 11.4553C16.5748 11.621 16.8701 11.7097 17.1792 11.7097H18.8065V12.0645C18.8065 13.0427 18.0105 13.8387 17.0323 13.8387ZM17.0323 9.22581C18.0105 9.22581 18.8065 10.0218 18.8065 11H17.1792C16.9538 11 16.7327 10.9085 16.5735 10.7491L16.3226 10.4982L16.0717 10.7491C15.9125 10.9085 15.6914 11 15.466 11H15.2581C15.2581 10.0218 16.054 9.22581 17.0323 9.22581ZM14.5484 10.3205C14.2344 10.0828 13.8444 9.93548 13.4229 9.93548H12.9935L12.5571 9.06259L12.2227 9.28541C11.5844 9.71094 10.8422 9.93548 10.0757 9.93548H8.57712C8.15557 9.93548 7.76556 10.0828 7.45161 10.3205V9.79566C7.45161 7.91647 8.98099 6.3871 10.8602 6.3871C11.7707 6.3871 12.6269 6.74159 13.2706 7.38525L13.6471 7.76175L13.7266 7.78843C14.218 7.95234 14.5484 8.41044 14.5484 8.92849V10.3205ZM17.0323 0.709677C18.0105 0.709677 18.8065 1.50564 18.8065 2.48387H18.5985C18.3731 2.48387 18.152 2.39239 17.9928 2.23299L17.7419 1.98211L17.4911 2.23299C17.3318 2.39239 17.1107 2.48387 16.8853 2.48387H15.2581C15.2581 1.50564 16.054 0.709677 17.0323 0.709677ZM15.2581 3.54839V3.19355H16.8853C17.1944 3.19355 17.4897 3.10484 17.7419 2.9392C17.9942 3.10484 18.2894 3.19355 18.5985 3.19355H18.8065V3.54839C18.8065 4.52662 18.0105 5.32258 17.0323 5.32258C16.054 5.32258 15.2581 4.52662 15.2581 3.54839ZM17.0323 6.74194C16.6544 6.74194 16.4096 6.424 16.3226 6.28955V5.92761C16.5475 5.99501 16.7857 6.03226 17.0323 6.03226C17.2788 6.03226 17.517 5.99501 17.7419 5.92761V6.2892C17.6539 6.42539 17.4094 6.74194 17.0323 6.74194Z" fill="url(#paint0_linear)"/>
<path d="M8.16132 0H8.87099V0.709677H8.16132V0Z" fill="url(#paint1_linear)"/>
<path d="M8.16132 1.41895H8.87099V5.32217H8.16132V1.41895Z" fill="url(#paint2_linear)"/>
<path d="M13.1292 0H13.8389V0.709677H13.1292V0Z" fill="url(#paint3_linear)"/>
<path d="M13.1292 1.41895H13.8389V5.32217H13.1292V1.41895Z" fill="url(#paint4_linear)"/>
<path d="M9.58026 1.41895H10.2899V3.90282H9.58026V1.41895Z" fill="url(#paint5_linear)"/>
<path d="M9.58026 4.61328H10.2899V5.32296H9.58026V4.61328Z" fill="url(#paint6_linear)"/>
<path d="M11.7095 1.41895H12.4191V3.90282H11.7095V1.41895Z" fill="url(#paint7_linear)"/>
<path d="M11.7095 4.61328H12.4191V5.32296H11.7095V4.61328Z" fill="url(#paint8_linear)"/>
<defs>
<linearGradient id="paint0_linear" x1="11" y1="0" x2="11" y2="22" gradientUnits="userSpaceOnUse">
<stop stop-color="#E8C99B"/>
<stop offset="1" stop-color="#C7A576"/>
</linearGradient>
<linearGradient id="paint1_linear" x1="8.51615" y1="0" x2="8.51615" y2="0.709677" gradientUnits="userSpaceOnUse">
<stop stop-color="#E8C99B"/>
<stop offset="1" stop-color="#C7A576"/>
</linearGradient>
<linearGradient id="paint2_linear" x1="8.51615" y1="1.41895" x2="8.51615" y2="5.32217" gradientUnits="userSpaceOnUse">
<stop stop-color="#E8C99B"/>
<stop offset="1" stop-color="#C7A576"/>
</linearGradient>
<linearGradient id="paint3_linear" x1="13.484" y1="0" x2="13.484" y2="0.709677" gradientUnits="userSpaceOnUse">
<stop stop-color="#E8C99B"/>
<stop offset="1" stop-color="#C7A576"/>
</linearGradient>
<linearGradient id="paint4_linear" x1="13.484" y1="1.41895" x2="13.484" y2="5.32217" gradientUnits="userSpaceOnUse">
<stop stop-color="#E8C99B"/>
<stop offset="1" stop-color="#C7A576"/>
</linearGradient>
<linearGradient id="paint5_linear" x1="9.9351" y1="1.41895" x2="9.9351" y2="3.90282" gradientUnits="userSpaceOnUse">
<stop stop-color="#E8C99B"/>
<stop offset="1" stop-color="#C7A576"/>
</linearGradient>
<linearGradient id="paint6_linear" x1="9.9351" y1="4.61328" x2="9.9351" y2="5.32296" gradientUnits="userSpaceOnUse">
<stop stop-color="#E8C99B"/>
<stop offset="1" stop-color="#C7A576"/>
</linearGradient>
<linearGradient id="paint7_linear" x1="12.0643" y1="1.41895" x2="12.0643" y2="3.90282" gradientUnits="userSpaceOnUse">
<stop stop-color="#E8C99B"/>
<stop offset="1" stop-color="#C7A576"/>
</linearGradient>
<linearGradient id="paint8_linear" x1="12.0643" y1="4.61328" x2="12.0643" y2="5.32296" gradientUnits="userSpaceOnUse">
<stop stop-color="#E8C99B"/>
<stop offset="1" stop-color="#C7A576"/>
</linearGradient>
</defs>
</svg>
