<svg width="22" height="22" viewBox="0 0 22 22" fill="none" xmlns="http://www.w3.org/2000/svg">
<path d="M22 3.3V1.1C21.9994 0.492766 21.5072 0.000644531 20.9 0H17.6C17.1354 0.00141797 16.7219 0.295109 16.5676 0.733348H14.9658C14.8114 0.295109 14.398 0.00141797 13.9333 0H1.1C0.492766 0.000644531 0.000644531 0.492766 0 1.1V3.3C0.00141797 3.76462 0.295109 4.17807 0.733348 4.33241V5.93424C0.295109 6.08859 0.00141797 6.50203 0 6.96665V9.16665C0.00141797 9.63127 0.295109 10.0447 0.733348 10.1991V11.8009C0.295109 11.9553 0.00141797 12.3687 0 12.8333V15.0333C0.00141797 15.498 0.295109 15.9114 0.733348 16.0658V17.6676C0.295109 17.8219 0.00141797 18.2354 0 18.7V20.9C0.000644531 21.5072 0.492766 21.9994 1.1 22H4.4C4.86462 21.9986 5.27807 21.7049 5.43241 21.2667H7.03424C7.18859 21.7049 7.60203 21.9986 8.06665 22H20.9C21.5072 21.9994 21.9994 21.5072 22 20.9V18.7C21.9986 18.2354 21.7049 17.8219 21.2667 17.6675V16.0658C21.7049 15.9114 21.9985 15.4979 22 15.0333V12.8333C21.9986 12.3687 21.7049 11.9552 21.2667 11.8009V10.1991C21.7049 10.0447 21.9985 9.63127 22 9.16661V6.96661C21.9986 6.50199 21.7049 6.08854 21.2667 5.93416V4.33237C21.7049 4.17807 21.9986 3.76462 22 3.3ZM0.733348 1.1C0.733562 0.897574 0.897574 0.733519 1.1 0.733348H13.9333C14.1358 0.733562 14.2998 0.897574 14.3 1.1V3.3C14.2998 3.50243 14.1358 3.66648 13.9333 3.66665H1.1C0.897574 3.66644 0.733519 3.50243 0.733348 3.3V1.1ZM0.733348 6.96665C0.733562 6.76423 0.897574 6.60017 1.1 6.6H4.4C4.60243 6.60021 4.76648 6.76423 4.76665 6.96665V9.16665C4.76644 9.36908 4.60243 9.53313 4.4 9.5333H1.1C0.897574 9.53309 0.733519 9.36903 0.733348 9.16665V6.96665ZM0.733348 12.8333C0.733562 12.6309 0.897574 12.4669 1.1 12.4667H13.9333C14.1358 12.4669 14.2998 12.6309 14.3 12.8333V15.0333C14.2998 15.2358 14.1358 15.3998 13.9333 15.4H1.1C0.897574 15.3998 0.733519 15.2358 0.733348 15.0333V12.8333ZM4.76665 20.9C4.76644 21.1024 4.60243 21.2665 4.4 21.2667H1.1C0.897574 21.2664 0.733519 21.1024 0.733348 20.9V18.7C0.733562 18.4976 0.897574 18.3335 1.1 18.3333H4.4C4.60243 18.3336 4.76648 18.4976 4.76665 18.7V20.9ZM6.96665 18.7V20.5333H5.5V18.7C5.49936 18.0928 5.00723 17.6006 4.4 17.6H1.46665V16.1333H13.9333C14.5405 16.1327 15.0327 15.6406 15.0333 15.0333V12.8333C15.0327 12.2261 14.5405 11.734 13.9333 11.7333H1.46665V10.2667H4.4C5.00723 10.2661 5.49936 9.77393 5.5 9.1667V6.9667C5.49936 6.35946 5.00723 5.86734 4.4 5.8667H1.46665V4.4H13.9333C14.5405 4.39936 15.0327 3.90723 15.0333 3.3V1.46665H16.5V3.3C16.5006 3.90723 16.9928 4.39936 17.6 4.4H20.5333V5.86665H8.06665C7.45942 5.8673 6.9673 6.35942 6.96665 6.96665V9.16665C6.9673 9.77389 7.45942 10.266 8.06665 10.2667H20.5333V11.7333H17.6C16.9928 11.7339 16.5006 12.2261 16.5 12.8333V15.0333C16.5006 15.6405 16.9928 16.1327 17.6 16.1333H20.5333V17.6H8.06665C7.45942 17.6006 6.96734 18.0928 6.96665 18.7ZM21.2667 20.9C21.2664 21.1024 21.1024 21.2665 20.9 21.2667H8.06665C7.86423 21.2664 7.70017 21.1024 7.7 20.9V18.7C7.70021 18.4976 7.86423 18.3335 8.06665 18.3333H20.9C21.1024 18.3336 21.2665 18.4976 21.2667 18.7V20.9ZM21.2667 15.0333C21.2664 15.2358 21.1024 15.3998 20.9 15.4H17.6C17.3976 15.3998 17.2335 15.2358 17.2333 15.0333V12.8333C17.2336 12.6309 17.3976 12.4669 17.6 12.4667H20.9C21.1024 12.4669 21.2665 12.6309 21.2667 12.8333V15.0333ZM21.2667 9.16665C21.2664 9.36908 21.1024 9.53313 20.9 9.5333H8.06665C7.86423 9.53309 7.70017 9.36903 7.7 9.16665V6.96665C7.70021 6.76423 7.86423 6.60017 8.06665 6.6H20.9C21.1024 6.60021 21.2665 6.76423 21.2667 6.96665V9.16665ZM20.9 3.66665H17.6C17.3976 3.66644 17.2335 3.50243 17.2333 3.3V1.1C17.2336 0.897574 17.3976 0.733519 17.6 0.733348H20.9C21.1024 0.733562 21.2665 0.897574 21.2667 1.1V3.3C21.2665 3.50243 21.1024 3.66648 20.9 3.66665Z" fill="url(#paint0_linear)"/>
<defs>
<linearGradient id="paint0_linear" x1="11" y1="0" x2="11" y2="22" gradientUnits="userSpaceOnUse">
<stop stop-color="#E8C99B"/>
<stop offset="1" stop-color="#C7A576"/>
</linearGradient>
</defs>
</svg>
