<svg width="24" height="24" viewBox="0 0 24 24" fill="none" xmlns="http://www.w3.org/2000/svg">
<g clip-path="url(#clip0)">
<path d="M23.6 3.93207C23.3791 3.93207 23.2 4.11117 23.2 4.33207V21.8762L21.508 21.4241C18.5014 20.6344 15.326 20.7739 12.4 21.8241V20.3961C14.8299 19.4748 17.4867 19.335 20 19.9961L21.892 20.5C21.9266 20.5041 21.9615 20.5041 21.9961 20.5C22.084 20.501 22.1697 20.4729 22.24 20.4202C22.3393 20.3438 22.3969 20.2254 22.3961 20.1V13.9961C22.3961 13.7752 22.217 13.5961 21.9961 13.5961C21.775 13.5961 21.5961 13.7752 21.5961 13.9961V19.5961L20.2039 19.2241C17.6281 18.551 14.9094 18.6666 12.4 19.5561V2.79613C14.8299 1.87484 17.4867 1.735 20 2.39613L21.6 2.82015V12.3961C21.6 12.617 21.7791 12.7961 22 12.7961C22.2209 12.7961 22.4 12.617 22.4 12.3961V2.53207C22.4064 2.34613 22.2836 2.18031 22.1039 2.13207L20.208 1.64008C17.4916 0.922302 14.6172 1.08617 12 2.10804C9.38184 1.09008 6.50879 0.926208 3.79199 1.64008L1.89609 2.14808C1.71641 2.19633 1.59355 2.36215 1.6 2.54808V7.19613C1.6 7.41703 1.7791 7.59613 2 7.59613C2.2209 7.59613 2.4 7.41703 2.4 7.19613V2.84008L4 2.41605C6.51113 1.74847 9.16797 1.88148 11.6 2.79613V19.5561C9.0877 18.6711 6.36758 18.561 3.79199 19.2401L2.4 19.5961V8.79613C2.4 8.57523 2.2209 8.39613 2 8.39613C1.7791 8.39613 1.6 8.57523 1.6 8.79613V20.1321C1.59902 20.2573 1.65684 20.3758 1.75605 20.4522C1.82637 20.5049 1.91211 20.533 2 20.5321C2.03457 20.536 2.06953 20.536 2.10391 20.5321L4 20.0161C6.51328 19.3549 9.17012 19.4948 11.6 20.4161V21.8202C8.67402 20.7698 5.49863 20.6303 2.49199 21.4202L0.8 21.8762V4.33207C0.8 4.11117 0.620898 3.93207 0.4 3.93207C0.179102 3.93207 0 4.11117 0 4.33207V22.3961C0.000390625 22.52 0.0578125 22.6366 0.156055 22.7121C0.254297 22.7891 0.383203 22.8159 0.503906 22.7842L2.7 22.1961C5.70977 21.4 8.8957 21.5922 11.7881 22.7442L11.8439 22.7641C11.9391 22.802 12.0449 22.802 12.14 22.7641L12.1961 22.7442C15.0932 21.5887 18.2852 21.3965 21.3 22.1961L23.4961 22.7961C23.5305 22.8 23.5654 22.8 23.6 22.7961C23.8209 22.7961 24 22.617 24 22.3961V4.33207C24 4.11117 23.8209 3.93207 23.6 3.93207Z" fill="url(#paint0_linear)"/>
<path d="M20.7999 4.3962C20.7997 4.22315 20.6884 4.06983 20.5239 4.01612L19.656 3.73624C18.836 3.46827 17.9603 3.42003 17.1159 3.5962C16.9282 3.63643 16.7956 3.8044 16.7999 3.9962V7.59619C16.8036 7.71787 16.8624 7.83115 16.9599 7.9042C17.0587 7.98037 17.1858 8.00947 17.3079 7.98428C18.0083 7.83682 18.7351 7.87549 19.4159 8.09619L20.2759 8.37627C20.3161 8.38857 20.3579 8.39541 20.3999 8.39619C20.4845 8.39502 20.5665 8.36846 20.6358 8.32021C20.7394 8.24463 20.8003 8.12412 20.7999 7.99619V4.3962ZM19.9999 7.44424L19.664 7.33623C19.1759 7.17647 18.6655 7.09541 18.1519 7.09619C17.9675 7.09697 17.7831 7.10752 17.5999 7.12822V4.32823C18.2073 4.24815 18.8249 4.3042 19.4079 4.49229L19.9999 4.68428V7.44424Z" fill="url(#paint1_linear)"/>
<path d="M10.1073 11.196C8.20669 10.6521 6.19184 10.6521 4.29126 11.196C4.07036 11.2556 3.93969 11.4832 3.99926 11.7041C4.05883 11.925 4.28637 12.0556 4.50727 11.9961C6.26665 11.4921 8.13188 11.4921 9.89126 11.9961C9.927 12.0019 9.96352 12.0019 9.99926 11.9961C10.2202 12.0259 10.4235 11.8711 10.4532 11.65C10.4831 11.4291 10.3282 11.2259 10.1073 11.196Z" fill="url(#paint2_linear)"/>
<path d="M10.1073 13.196C8.20669 12.6521 6.19184 12.6521 4.29126 13.196C4.07036 13.2556 3.93969 13.4832 3.99926 13.704C4.05883 13.9249 4.28637 14.0556 4.50727 13.996C6.26665 13.4921 8.13188 13.4921 9.89126 13.996C9.927 14.0019 9.96352 14.0019 9.99926 13.996C10.2202 14.0259 10.4235 13.871 10.4532 13.6499C10.4831 13.429 10.3282 13.2259 10.1073 13.196Z" fill="url(#paint3_linear)"/>
<path d="M10.1073 15.196C8.20669 14.6521 6.19184 14.6521 4.29126 15.196C4.07036 15.2556 3.93969 15.4832 3.99926 15.7041C4.05883 15.925 4.28637 16.0556 4.50727 15.9961C6.26665 15.4921 8.13188 15.4921 9.89126 15.9961C9.927 16.0019 9.96352 16.0019 9.99926 15.9961C10.2202 16.0259 10.4235 15.8711 10.4532 15.65C10.4831 15.4291 10.3282 15.2259 10.1073 15.196Z" fill="url(#paint4_linear)"/>
<path d="M13.6008 5.19581H13.6969L15.2969 4.79581C15.5178 4.74288 15.6538 4.5208 15.6008 4.29971C15.5479 4.07881 15.3258 3.94287 15.1047 3.9958L13.5047 4.3958C13.2838 4.42237 13.1264 4.62295 13.1528 4.84385C13.1793 5.06475 13.3799 5.22237 13.6008 5.19581Z" fill="url(#paint5_linear)"/>
<path d="M13.1997 6.49225C13.2528 6.70631 13.4694 6.83698 13.6837 6.78424L15.2837 6.38424C15.5012 6.33444 15.6374 6.11783 15.5878 5.90006C15.538 5.68248 15.3214 5.54654 15.1036 5.59615L13.5036 5.99615C13.396 6.01881 13.3022 6.08482 13.2448 6.17858C13.1872 6.27252 13.171 6.3858 13.1997 6.49225Z" fill="url(#paint6_linear)"/>
<path d="M13.1997 8.49224C13.2528 8.7063 13.4694 8.83696 13.6837 8.78423L15.2837 8.38423C15.5012 8.33443 15.6374 8.11783 15.5878 7.90005C15.538 7.68248 15.3214 7.54654 15.1036 7.59615L13.5036 7.99615C13.396 8.0188 13.3022 8.08482 13.2448 8.17857C13.1872 8.27251 13.171 8.38579 13.1997 8.49224Z" fill="url(#paint7_linear)"/>
<path d="M13.7645 18.3196C13.8338 18.3678 13.9158 18.3944 14.0004 18.3956C14.0416 18.4012 14.0832 18.4012 14.1244 18.3956L14.9844 18.1155C15.6723 17.8897 16.4075 17.8483 17.1164 17.9956C17.2348 18.0211 17.3582 17.9916 17.4524 17.9155C17.5487 17.8375 17.6034 17.7194 17.6004 17.5955V13.9955C17.6047 13.8037 17.4721 13.6358 17.2844 13.5955C16.4409 13.4166 15.5651 13.4621 14.7444 13.7276L13.8764 14.0075C13.709 14.0621 13.5971 14.2196 13.6004 14.3955V17.9956C13.6 18.1235 13.661 18.244 13.7645 18.3196ZM14.4004 14.6875L14.9924 14.4955C15.5754 14.3075 16.193 14.2516 16.8004 14.3315V17.1315C16.1055 17.0522 15.4016 17.1231 14.7364 17.3395L14.4004 17.4475V14.6875Z" fill="url(#paint8_linear)"/>
<path d="M13.5999 10.5039C13.6601 10.7156 13.88 10.8388 14.0919 10.7798C15.8513 10.2759 17.7167 10.2759 19.4759 10.7798C19.5159 10.7929 19.5579 10.7984 19.5999 10.7958C19.8208 10.8257 20.0241 10.6708 20.0538 10.4498C20.0837 10.2289 19.9288 10.0257 19.7079 9.99585C17.8073 9.4519 15.7925 9.4519 13.8919 9.99585C13.7837 10.0208 13.6905 10.0898 13.6353 10.1863C13.5798 10.2826 13.5671 10.3976 13.5999 10.5039Z" fill="url(#paint9_linear)"/>
<path d="M19.5991 12.7958C19.82 12.8257 20.0234 12.6708 20.053 12.4497C20.0829 12.2288 19.928 12.0257 19.7071 11.9958C17.8065 11.4519 15.7917 11.4519 13.8911 11.9958C13.6702 12.0554 13.5395 12.2829 13.5991 12.5038C13.6587 12.7247 13.8862 12.8554 14.1071 12.7958C15.8665 12.2919 17.7317 12.2919 19.4911 12.7958C19.5269 12.8017 19.5634 12.8017 19.5991 12.7958Z" fill="url(#paint10_linear)"/>
<path d="M18.7038 14.7958L20.3037 15.1958C20.4102 15.2245 20.5235 15.2083 20.6174 15.1507C20.7112 15.0933 20.7772 14.9995 20.7998 14.8919C20.8285 14.7855 20.8123 14.6722 20.7547 14.5782C20.6973 14.4845 20.6035 14.4185 20.4959 14.3958L18.8959 13.9958C18.6749 13.9429 18.4528 14.0788 18.3999 14.2997C18.3469 14.5208 18.4829 14.7429 18.7038 14.7958Z" fill="url(#paint11_linear)"/>
<path d="M10.0003 6.39624C10.2212 6.39624 10.4003 6.21714 10.4003 5.99624V4.79624C10.4071 4.61147 10.2864 4.44604 10.1083 4.39624C8.2077 3.85229 6.19285 3.85229 4.29227 4.39624C4.11414 4.44604 3.99344 4.61147 4.00028 4.79624V9.59624C4.00028 9.72222 4.05965 9.84077 4.16024 9.91616C4.26004 9.99058 4.38856 10.0142 4.50828 9.98022C6.26766 9.47632 8.13289 9.47632 9.89227 9.98022C9.92723 9.99136 9.96356 9.99683 10.0003 9.99624C10.2212 9.99624 10.4003 9.81714 10.4003 9.59624V7.59624C10.4003 7.37534 10.2212 7.19624 10.0003 7.19624C9.77938 7.19624 9.60028 7.37534 9.60028 7.59624V9.08022C8.02137 8.71226 6.37918 8.71226 4.80028 9.08022V5.10425C6.37528 4.70425 8.02528 4.70425 9.60028 5.10425V5.99624C9.60028 6.21714 9.77938 6.39624 10.0003 6.39624Z" fill="url(#paint12_linear)"/>
</g>
<defs>
<linearGradient id="paint0_linear" x1="12" y1="1.2002" x2="12" y2="22.7991" gradientUnits="userSpaceOnUse">
<stop stop-color="#E8C99B"/>
<stop offset="1" stop-color="#C7A576"/>
</linearGradient>
<linearGradient id="paint1_linear" x1="18.7999" y1="3.49219" x2="18.7999" y2="8.39619" gradientUnits="userSpaceOnUse">
<stop stop-color="#E8C99B"/>
<stop offset="1" stop-color="#C7A576"/>
</linearGradient>
<linearGradient id="paint2_linear" x1="7.22086" y1="10.7881" x2="7.22086" y2="12.0105" gradientUnits="userSpaceOnUse">
<stop stop-color="#E8C99B"/>
<stop offset="1" stop-color="#C7A576"/>
</linearGradient>
<linearGradient id="paint3_linear" x1="7.22086" y1="12.7881" x2="7.22086" y2="14.0104" gradientUnits="userSpaceOnUse">
<stop stop-color="#E8C99B"/>
<stop offset="1" stop-color="#C7A576"/>
</linearGradient>
<linearGradient id="paint4_linear" x1="7.22086" y1="14.7881" x2="7.22086" y2="16.0105" gradientUnits="userSpaceOnUse">
<stop stop-color="#E8C99B"/>
<stop offset="1" stop-color="#C7A576"/>
</linearGradient>
<linearGradient id="paint5_linear" x1="14.3811" y1="3.98438" x2="14.3811" y2="5.19873" gradientUnits="userSpaceOnUse">
<stop stop-color="#E8C99B"/>
<stop offset="1" stop-color="#C7A576"/>
</linearGradient>
<linearGradient id="paint6_linear" x1="14.3919" y1="5.58594" x2="14.3919" y2="6.79593" gradientUnits="userSpaceOnUse">
<stop stop-color="#E8C99B"/>
<stop offset="1" stop-color="#C7A576"/>
</linearGradient>
<linearGradient id="paint7_linear" x1="14.3919" y1="7.58594" x2="14.3919" y2="8.79592" gradientUnits="userSpaceOnUse">
<stop stop-color="#E8C99B"/>
<stop offset="1" stop-color="#C7A576"/>
</linearGradient>
<linearGradient id="paint8_linear" x1="15.6004" y1="13.4883" x2="15.6004" y2="18.3998" gradientUnits="userSpaceOnUse">
<stop stop-color="#E8C99B"/>
<stop offset="1" stop-color="#C7A576"/>
</linearGradient>
<linearGradient id="paint9_linear" x1="16.8198" y1="9.58789" x2="16.8198" y2="10.7995" gradientUnits="userSpaceOnUse">
<stop stop-color="#E8C99B"/>
<stop offset="1" stop-color="#C7A576"/>
</linearGradient>
<linearGradient id="paint10_linear" x1="16.8207" y1="11.5879" x2="16.8207" y2="12.8102" gradientUnits="userSpaceOnUse">
<stop stop-color="#E8C99B"/>
<stop offset="1" stop-color="#C7A576"/>
</linearGradient>
<linearGradient id="paint11_linear" x1="19.6011" y1="13.9844" x2="19.6011" y2="15.2097" gradientUnits="userSpaceOnUse">
<stop stop-color="#E8C99B"/>
<stop offset="1" stop-color="#C7A576"/>
</linearGradient>
<linearGradient id="paint12_linear" x1="7.20028" y1="3.98828" x2="7.20028" y2="9.99628" gradientUnits="userSpaceOnUse">
<stop stop-color="#E8C99B"/>
<stop offset="1" stop-color="#C7A576"/>
</linearGradient>
<clipPath id="clip0">
<rect width="24" height="24" fill="white"/>
</clipPath>
</defs>
</svg>
