<svg width="24" height="24" viewBox="0 0 24 24" fill="none" xmlns="http://www.w3.org/2000/svg">
<path d="M24 12C24 11.6694 23.8496 11.3643 23.5873 11.1631L22.8213 10.5753L23.409 9.80934C23.6103 9.54708 23.6767 9.21347 23.5911 8.89411C23.5055 8.57475 23.2813 8.31905 22.9758 8.19258L22.0838 7.82311L22.4533 6.93112C22.5798 6.62569 22.5576 6.28627 22.3923 5.99995C22.227 5.71364 21.9442 5.52469 21.6164 5.48152L20.6592 5.35552L20.7852 4.39828C20.8284 4.07053 20.7191 3.74845 20.4853 3.51469C20.2515 3.28092 19.9294 3.17161 19.6017 3.21473L18.6444 3.34073L18.5184 2.38355C18.4753 2.05575 18.2863 1.77295 18 1.60763C17.7137 1.44234 17.3743 1.42013 17.0689 1.54664L16.1769 1.91611L15.8074 1.02412C15.6809 0.718687 15.4252 0.494437 15.1058 0.408891C14.7865 0.323297 14.4529 0.389672 14.1907 0.590953L13.4247 1.17872L12.837 0.412781C12.6357 0.150422 12.3306 0 12 0C11.6694 0 11.3643 0.150422 11.1631 0.412734L10.5754 1.17867L9.80944 0.590953C9.54717 0.389672 9.21361 0.323297 8.89425 0.408891C8.57489 0.494437 8.31919 0.718687 8.19263 1.02412L7.82316 1.91611L6.93117 1.54664C6.62569 1.42008 6.28627 1.44234 6 1.60767C5.71369 1.77295 5.52473 2.0558 5.48156 2.38355L5.35556 3.34078L4.39838 3.21473C4.07062 3.17161 3.7485 3.28092 3.51473 3.51469C3.28097 3.74845 3.17166 4.07053 3.21483 4.39833L3.34083 5.35552L2.38364 5.48152C2.05584 5.52464 1.77309 5.71364 1.60777 5.99995C1.44248 6.28627 1.42022 6.62564 1.54673 6.93112L1.9162 7.82311L1.02422 8.19258C0.718781 8.31909 0.494531 8.5748 0.408984 8.89411C0.323391 9.21347 0.389766 9.54708 0.591 9.80934L1.17877 10.5753L0.412828 11.163C0.150422 11.3643 0 11.6694 0 12C0 12.3306 0.150422 12.6357 0.412734 12.837L1.17867 13.4247L0.590906 14.1907C0.389672 14.4529 0.323297 14.7865 0.408891 15.1059C0.494437 15.4253 0.718687 15.681 1.02412 15.8074L1.91611 16.1769L1.54664 17.0689C1.42013 17.3743 1.44234 17.7137 1.60767 18C1.773 18.2863 2.0558 18.4753 2.38355 18.5184L3.34078 18.6444L3.21473 19.6016C3.17161 19.9294 3.28092 20.2515 3.51469 20.4853C3.74845 20.719 4.07053 20.8283 4.39833 20.7852L5.35552 20.6592L5.48152 21.6164C5.52469 21.9442 5.71364 22.227 6 22.3923C6.28631 22.5576 6.62573 22.5798 6.93112 22.4534L7.82311 22.0839L8.19258 22.9758C8.31909 23.2813 8.5748 23.5055 8.89411 23.5911C9.21342 23.6767 9.54703 23.6103 9.80934 23.409L10.5753 22.8213L11.163 23.5872C11.3643 23.8496 11.6694 24 12 24C12.3306 24 12.6357 23.8496 12.8369 23.5873L13.4247 22.8213L14.1906 23.4091C14.4529 23.6103 14.7864 23.6767 15.1058 23.5911C15.4252 23.5056 15.6809 23.2813 15.8074 22.9759L16.1768 22.0839L17.0688 22.4534C17.3743 22.5799 17.7137 22.5577 17.9999 22.3924C18.2862 22.2271 18.4752 21.9443 18.5184 21.6165L18.6444 20.6593L19.6016 20.7853C19.9293 20.8283 20.2515 20.7191 20.4853 20.4853C20.719 20.2515 20.8283 19.9295 20.7852 19.6017L20.6592 18.6445L21.6164 18.5185C21.9442 18.4753 22.2269 18.2864 22.3922 18C22.5576 17.7137 22.5798 17.3744 22.4533 17.0689L22.0838 16.1769L22.9758 15.8075C23.2812 15.681 23.5055 15.4253 23.5911 15.1059C23.6766 14.7866 23.6103 14.453 23.409 14.1907L22.8212 13.4247L23.5872 12.837C23.8496 12.6357 24 12.3306 24 12ZM23.1593 12.2791L22.1144 13.0808C22.0404 13.1376 21.992 13.2214 21.9798 13.3139C21.9676 13.4063 21.9927 13.4998 22.0494 13.5738L22.8512 14.6187C22.9183 14.7061 22.9404 14.8174 22.9119 14.9239C22.8834 15.0304 22.8086 15.1156 22.7067 15.1578L21.4899 15.6618C21.3105 15.7361 21.2253 15.9418 21.2997 16.1212L21.8037 17.3379C21.8458 17.4398 21.8384 17.553 21.7833 17.6485C21.7282 17.744 21.6338 17.807 21.5246 17.8214L20.2188 17.9932C20.0263 18.0186 19.8908 18.1952 19.9162 18.3877L20.088 19.6935C20.1024 19.8028 20.066 19.9102 19.988 19.9881C19.9101 20.0661 19.8029 20.1026 19.6933 20.0881L18.3876 19.9163C18.2953 19.9042 18.2017 19.9291 18.1277 19.9859C18.0537 20.0427 18.0053 20.1265 17.9932 20.2189L17.8213 21.5247C17.8068 21.634 17.7439 21.7283 17.6484 21.7834C17.553 21.8385 17.4397 21.846 17.3379 21.8038L16.1211 21.2998C15.9417 21.2255 15.7361 21.3107 15.6618 21.49L15.1578 22.7068C15.1156 22.8087 15.0303 22.8834 14.9238 22.912C14.8174 22.9405 14.7061 22.9185 14.6186 22.8513L13.5737 22.0495C13.4998 21.9928 13.4064 21.9678 13.3139 21.9799C13.2214 21.9921 13.1376 22.0404 13.0808 22.1144L12.279 23.1593C12.212 23.2467 12.1103 23.2969 12 23.2969C11.8897 23.2969 11.788 23.2467 11.7209 23.1593L10.9192 22.1144C10.8624 22.0404 10.7786 21.992 10.6861 21.9798C10.6708 21.9778 10.6555 21.9768 10.6403 21.9768C10.5633 21.9768 10.488 22.0021 10.4262 22.0495L9.38133 22.8512C9.29386 22.9184 9.18258 22.9405 9.07612 22.9119C8.96962 22.8834 8.88436 22.8086 8.84217 22.7068L8.33817 21.49C8.26388 21.3106 8.05814 21.2254 7.87884 21.2997L6.66206 21.8037C6.5602 21.8459 6.447 21.8385 6.35156 21.7834C6.25608 21.7283 6.19308 21.6339 6.17869 21.5246L6.0068 20.2189C5.99461 20.1264 5.94623 20.0426 5.87227 19.9859C5.7983 19.9291 5.70483 19.904 5.61234 19.9162L4.30659 20.0881C4.19752 20.1026 4.08989 20.0661 4.01194 19.9881C3.93398 19.9101 3.89752 19.8027 3.91191 19.6934L4.0838 18.3877C4.10916 18.1951 3.97359 18.0186 3.78113 17.9932L2.47537 17.8213C2.36606 17.8069 2.27175 17.7439 2.21662 17.6484C2.1615 17.553 2.15409 17.4398 2.19628 17.3379L2.70028 16.1212C2.77458 15.9418 2.68941 15.7361 2.51002 15.6618L1.29323 15.1578C1.19138 15.1156 1.11656 15.0304 1.08806 14.9239C1.05952 14.8174 1.08164 14.7061 1.14877 14.6187L1.95052 13.5738C2.00728 13.4998 2.03231 13.4063 2.02017 13.3139C2.00798 13.2214 1.95961 13.1376 1.88564 13.0808L0.84075 12.2791C0.753281 12.212 0.703125 12.1103 0.703125 12C0.703125 11.8897 0.753281 11.788 0.840797 11.7209L1.88569 10.9192C1.95966 10.8624 2.00803 10.7786 2.02022 10.6861C2.03236 10.5937 2.00733 10.5002 1.95056 10.4262L1.14881 9.38133C1.08169 9.29386 1.05956 9.18262 1.08811 9.07612C1.11661 8.96962 1.19142 8.88436 1.29328 8.84217L2.51006 8.33817C2.59622 8.3025 2.66466 8.23406 2.70033 8.14791C2.736 8.06175 2.736 7.965 2.70033 7.87884L2.19633 6.66206C2.15414 6.5602 2.16155 6.44705 2.21667 6.35152C2.2718 6.25603 2.36611 6.19303 2.47542 6.17864L3.78117 6.00675C3.97364 5.98139 4.1092 5.80481 4.08384 5.6123L3.91195 4.30655C3.89756 4.19723 3.93398 4.08984 4.01194 4.01189C4.08989 3.93394 4.19737 3.89756 4.30659 3.91186L5.61234 4.08375C5.80523 4.10892 5.98148 3.97355 6.0068 3.78108L6.17869 2.47533C6.19308 2.36602 6.25608 2.27175 6.35156 2.21658C6.44714 2.16145 6.56025 2.15409 6.66211 2.19623L7.87889 2.70023C8.05828 2.77448 8.26392 2.68936 8.33822 2.50997L8.84222 1.29319C8.88441 1.19133 8.96967 1.11652 9.07617 1.08802C9.18277 1.05947 9.29395 1.08164 9.38138 1.14872L10.4262 1.95047C10.5802 2.06864 10.801 2.03958 10.9192 1.88559L11.7209 0.840703C11.788 0.753281 11.8897 0.703125 12 0.703125C12.1103 0.703125 12.212 0.753281 12.2791 0.84075L13.0809 1.88564C13.1377 1.95961 13.2215 2.00803 13.314 2.02022C13.4062 2.03231 13.4999 2.00733 13.5738 1.95056L14.6187 1.14881C14.7061 1.08169 14.8173 1.05961 14.9239 1.08811C15.0304 1.11666 15.1157 1.19147 15.1579 1.29328L15.6619 2.51006C15.7362 2.68941 15.9418 2.77462 16.1213 2.70033L17.338 2.19633C17.4399 2.15414 17.5531 2.16155 17.6485 2.21667C17.744 2.2718 17.807 2.36611 17.8214 2.47542L17.9933 3.78117C18.0186 3.97364 18.1951 4.10911 18.3877 4.08384L19.6935 3.91195C19.8025 3.89742 19.9102 3.93398 19.9882 4.01198C20.0661 4.08994 20.1025 4.19733 20.0882 4.30664L19.9163 5.61244C19.8909 5.80495 20.0265 5.98158 20.219 6.00689L21.5247 6.17878C21.634 6.19317 21.7283 6.25617 21.7834 6.35166C21.8385 6.44714 21.846 6.56034 21.8038 6.6622L21.2998 7.87898C21.2255 8.05838 21.3106 8.26402 21.4901 8.33831L22.7069 8.84231C22.8087 8.8845 22.8835 8.96977 22.912 9.07627C22.9406 9.18277 22.9185 9.294 22.8513 9.38147L22.0496 10.4264C21.9928 10.5003 21.9678 10.5938 21.98 10.6863C21.9922 10.7787 22.0405 10.8625 22.1145 10.9193L23.1594 11.721C23.2467 11.788 23.2969 11.8897 23.2969 12C23.2969 12.1103 23.2467 12.212 23.1593 12.2791Z" fill="url(#paint0_linear)"/>
<path d="M12.2486 12.7456C12.1113 12.6083 11.8887 12.6084 11.7514 12.7456L7.62481 16.8722C7.48774 17.0093 7.26471 17.0093 7.1276 16.8722C6.99054 16.7352 6.99054 16.5121 7.1276 16.375L16.3753 7.1274C16.4417 7.06098 16.5299 7.02441 16.6239 7.02441C16.7178 7.02441 16.8061 7.06098 16.8724 7.1274C17.0096 7.26446 17.0096 7.48754 16.8724 7.6246L12.7458 11.7512C12.6085 11.8885 12.6085 12.1111 12.7458 12.2484C12.8832 12.3857 13.1057 12.3857 13.243 12.2484L17.3696 8.12176C17.7808 7.71052 17.7808 7.04143 17.3696 6.6302C17.1704 6.43098 16.9056 6.32129 16.6239 6.32129C16.3421 6.32129 16.0773 6.43102 15.8781 6.6302L6.63045 15.8778C6.21921 16.289 6.21921 16.9582 6.63045 17.3694C6.83604 17.575 7.10613 17.6778 7.37623 17.6778C7.64632 17.6778 7.91637 17.575 8.12201 17.3694L12.2486 13.2428C12.3859 13.1055 12.3859 12.8829 12.2486 12.7456Z" fill="url(#paint1_linear)"/>
<path d="M15.4802 12.3164C13.7355 12.3164 12.3162 13.7358 12.3162 15.4805C12.3162 17.2252 13.7355 18.6445 15.4802 18.6445C17.2249 18.6445 18.6443 17.2252 18.6443 15.4805C18.6443 13.7358 17.2249 12.3164 15.4802 12.3164ZM15.4802 17.9414C14.1233 17.9414 13.0193 16.8375 13.0193 15.4805C13.0193 14.1235 14.1233 13.0195 15.4802 13.0195C16.8372 13.0195 17.9412 14.1235 17.9412 15.4805C17.9412 16.8375 16.8372 17.9414 15.4802 17.9414Z" fill="url(#paint2_linear)"/>
<path d="M15.4802 13.7227C14.5109 13.7227 13.7224 14.5112 13.7224 15.4805C13.7224 16.4497 14.5109 17.2383 15.4802 17.2383C16.4495 17.2383 17.238 16.4497 17.238 15.4805C17.238 14.5112 16.4495 13.7227 15.4802 13.7227ZM15.4802 16.5352C14.8987 16.5352 14.4255 16.062 14.4255 15.4805C14.4255 14.8989 14.8987 14.4258 15.4802 14.4258C16.0618 14.4258 16.5349 14.8989 16.5349 15.4805C16.5349 16.062 16.0618 16.5352 15.4802 16.5352Z" fill="url(#paint3_linear)"/>
<path d="M11.6838 8.51953C11.6838 6.77484 10.2645 5.35547 8.51978 5.35547C6.77509 5.35547 5.35571 6.77484 5.35571 8.51953C5.35571 10.2642 6.77509 11.6836 8.51978 11.6836C10.2645 11.6836 11.6838 10.2642 11.6838 8.51953ZM6.05884 8.51953C6.05884 7.16255 7.16279 6.05859 8.51978 6.05859C9.87676 6.05859 10.9807 7.16255 10.9807 8.51953C10.9807 9.87652 9.87676 10.9805 8.51978 10.9805C7.16279 10.9805 6.05884 9.87652 6.05884 8.51953Z" fill="url(#paint4_linear)"/>
<path d="M10.2776 8.51953C10.2776 7.55025 9.48906 6.76172 8.51978 6.76172C7.55049 6.76172 6.76196 7.55025 6.76196 8.51953C6.76196 9.48881 7.55049 10.2773 8.51978 10.2773C9.48906 10.2773 10.2776 9.48881 10.2776 8.51953ZM7.46509 8.51953C7.46509 7.93795 7.9382 7.46484 8.51978 7.46484C9.10135 7.46484 9.57446 7.93795 9.57446 8.51953C9.57446 9.10111 9.10135 9.57422 8.51978 9.57422C7.9382 9.57422 7.46509 9.10111 7.46509 8.51953Z" fill="url(#paint5_linear)"/>
<defs>
<linearGradient id="paint0_linear" x1="12" y1="0" x2="12" y2="24" gradientUnits="userSpaceOnUse">
<stop stop-color="#E8C99B"/>
<stop offset="1" stop-color="#C7A576"/>
</linearGradient>
<linearGradient id="paint1_linear" x1="12" y1="6.32129" x2="12" y2="17.6778" gradientUnits="userSpaceOnUse">
<stop stop-color="#E8C99B"/>
<stop offset="1" stop-color="#C7A576"/>
</linearGradient>
<linearGradient id="paint2_linear" x1="15.4802" y1="12.3164" x2="15.4802" y2="18.6445" gradientUnits="userSpaceOnUse">
<stop stop-color="#E8C99B"/>
<stop offset="1" stop-color="#C7A576"/>
</linearGradient>
<linearGradient id="paint3_linear" x1="15.4802" y1="13.7227" x2="15.4802" y2="17.2383" gradientUnits="userSpaceOnUse">
<stop stop-color="#E8C99B"/>
<stop offset="1" stop-color="#C7A576"/>
</linearGradient>
<linearGradient id="paint4_linear" x1="8.51978" y1="5.35547" x2="8.51978" y2="11.6836" gradientUnits="userSpaceOnUse">
<stop stop-color="#E8C99B"/>
<stop offset="1" stop-color="#C7A576"/>
</linearGradient>
<linearGradient id="paint5_linear" x1="8.51978" y1="6.76172" x2="8.51978" y2="10.2773" gradientUnits="userSpaceOnUse">
<stop stop-color="#E8C99B"/>
<stop offset="1" stop-color="#C7A576"/>
</linearGradient>
</defs>
</svg>
