<svg width="20" height="20" viewBox="0 0 20 20" fill="none" xmlns="http://www.w3.org/2000/svg">
<g opacity="0.5">
<path d="M10 14.6621C9.78426 14.6621 9.60938 14.837 9.60938 15.0527C9.60938 15.0532 9.60938 15.0538 9.60938 15.0543C9.60938 15.0548 9.60938 15.0554 9.60938 15.0559V15.059C9.60938 15.2747 9.78426 15.4496 10 15.4496C10.2157 15.4496 10.3906 15.2747 10.3906 15.059C10.3906 15.0584 10.3906 15.058 10.3906 15.0574C10.3906 15.0569 10.3906 15.0564 10.3906 15.0559C10.3906 15.0553 10.3906 15.0548 10.3906 15.0543C10.3906 15.0538 10.3906 15.0532 10.3906 15.0527C10.3906 14.837 10.2157 14.6621 10 14.6621Z" fill="white"/>
<path d="M16.1719 0H3.82812C1.71727 0 0 1.71727 0 3.82812V16.1719C0 18.2827 1.71727 20 3.82812 20H10C10.2157 20 10.3906 19.8251 10.3906 19.6094V16.582C10.3906 16.3663 10.2157 16.1914 10 16.1914C9.78426 16.1914 9.60938 16.3663 9.60938 16.582V19.2188H3.82812C2.14809 19.2188 0.78125 17.8519 0.78125 16.1719V3.82812C0.78125 2.14809 2.14809 0.78125 3.82812 0.78125H16.1719C17.8519 0.78125 19.2188 2.14809 19.2188 3.82812V16.1719C19.2188 17.8519 17.8519 19.2188 16.1719 19.2188H13.6719V12.3243H15.9368C16.1374 12.3243 16.3054 12.1723 16.3254 11.9727L16.6063 9.18152C16.6174 9.07164 16.5814 8.96227 16.5074 8.88039C16.4333 8.79852 16.328 8.7518 16.2177 8.7518H13.6719V7.28613C13.6719 7.02086 13.7564 6.92223 13.9836 6.92223H16.2001C16.4159 6.92223 16.5907 6.74734 16.5907 6.5316V3.81051C16.5907 3.59477 16.4159 3.41988 16.2001 3.41988H13.2893C11.64 3.41988 10.7653 4.14434 10.322 4.75207C9.70191 5.60199 9.60934 6.60574 9.60934 7.1284V8.7693H7.69527C7.47953 8.7693 7.30465 8.94418 7.30465 9.15992V11.9336C7.30465 12.1493 7.47953 12.3242 7.69527 12.3242H9.60934V13.4375C9.60934 13.6532 9.78422 13.8281 9.99996 13.8281C10.2157 13.8281 10.3906 13.6532 10.3906 13.4375V11.9336C10.3906 11.7179 10.2157 11.543 9.99996 11.543H8.0859V9.55051H9.99996C10.2157 9.55051 10.3906 9.37562 10.3906 9.15988V7.12836C10.3906 6.2482 10.673 4.20109 13.2893 4.20109H15.8095V6.14094H13.9836C13.4794 6.14094 12.8906 6.44086 12.8906 7.28609V9.14238C12.8906 9.35812 13.0655 9.53301 13.2812 9.53301H15.7857L15.5835 11.543H13.2812C13.0655 11.543 12.8906 11.7179 12.8906 11.9336V19.6094C12.8906 19.8251 13.0655 20 13.2812 20H16.1719C18.2827 20 20 18.2827 20 16.1719V3.82812C20 1.71727 18.2827 0 16.1719 0Z" fill="white"/>
<path d="M2.26562 4.00391C2.04988 4.00391 1.875 4.17879 1.875 4.39453V7.65625C1.875 7.87199 2.04988 8.04688 2.26562 8.04688C2.48137 8.04688 2.65625 7.87199 2.65625 7.65625V4.39453C2.65625 4.17879 2.48137 4.00391 2.26562 4.00391Z" fill="white"/>
<path d="M2.26562 8.95898C2.04988 8.95898 1.875 9.13387 1.875 9.34961V9.35422C1.875 9.56996 2.04988 9.74484 2.26562 9.74484C2.48137 9.74484 2.65625 9.56996 2.65625 9.35422V9.34961C2.65625 9.13387 2.48137 8.95898 2.26562 8.95898Z" fill="white"/>
</g>
</svg>
