<svg width="17" height="21" viewBox="0 0 17 21" fill="none" xmlns="http://www.w3.org/2000/svg">
<path d="M8.5 0C4.15747 0 0.625 3.53288 0.625 7.875C0.625 13.6847 7.89075 20.5898 8.20009 20.8812C8.28467 20.9603 8.39233 21 8.5 21C8.60767 21 8.71533 20.9603 8.79995 20.8812C9.10925 20.5898 16.375 13.6847 16.375 7.875C16.375 3.53288 12.8425 0 8.5 0ZM8.5 12.25C6.08775 12.25 4.12499 10.2873 4.12499 7.875C4.12499 5.46275 6.08779 3.49999 8.5 3.49999C10.9122 3.49999 12.875 5.46279 12.875 7.875C12.875 10.2872 10.9123 12.25 8.5 12.25Z" fill="url(#paint0_linear)"/>
<defs>
<linearGradient id="paint0_linear" x1="8.5" y1="0" x2="8.5" y2="21" gradientUnits="userSpaceOnUse">
<stop stop-color="#E8C99B"/>
<stop offset="1" stop-color="#C7A576"/>
</linearGradient>
</defs>
</svg>
