<svg width="24" height="24" viewBox="0 0 24 24" fill="none" xmlns="http://www.w3.org/2000/svg">
<g opacity="0.5" clip-path="url(#clip0)">
<path d="M22.9336 15.7351C22.4115 15.1095 21.8218 14.5509 21.2513 14.0107C21.0509 13.8208 20.8435 13.6244 20.6438 13.4295C20.6438 13.4294 20.6437 13.4294 20.6437 13.4293C20.3751 13.1673 20.2436 12.9814 20.2299 12.844C20.2164 12.709 20.3086 12.5087 20.5208 12.2127C20.8381 11.7674 21.1763 11.3213 21.5035 10.8899C21.7943 10.5065 22.095 10.11 22.3832 9.71122L22.4479 9.62169C23.0101 8.84347 23.5915 8.03876 23.903 7.05813C23.992 6.77698 24.0844 6.36091 23.8615 5.99566C23.6386 5.63031 23.2253 5.52203 22.934 5.47244C22.7917 5.44806 22.6567 5.44605 22.5311 5.44605L18.8839 5.44281C18.2534 5.43231 17.8159 5.73119 17.5775 6.33138C17.3868 6.81073 17.1614 7.36624 16.9004 7.89321C16.4009 8.91055 15.7663 10.0823 14.8464 11.0586L14.8055 11.1021C14.7429 11.1689 14.6406 11.2782 14.588 11.3033C14.4884 11.2407 14.3734 10.8825 14.3786 10.6948C14.3788 10.6902 14.3788 10.6856 14.3788 10.681L14.3756 6.4668C14.3756 6.44538 14.3741 6.42396 14.3712 6.40272C14.2894 5.8015 14.13 5.19878 13.1784 5.011C13.1479 5.00495 13.1169 5.00195 13.0858 5.00195H9.29198C8.57821 5.00195 8.20068 5.32881 7.89801 5.68319C7.8104 5.7865 7.57762 6.06082 7.69621 6.39616C7.81621 6.73549 8.17377 6.80323 8.29115 6.82544C8.70459 6.90391 8.91839 7.13759 8.98457 7.58431C9.1154 8.45229 9.13143 9.38084 9.0351 10.5051C9.00825 10.8069 8.95828 11.0363 8.87765 11.2271C8.85534 11.2799 8.83574 11.3126 8.82206 11.3319C8.80021 11.3231 8.76623 11.3062 8.71917 11.274C8.42863 11.0752 8.20968 10.7661 7.99794 10.4674C7.15222 9.27331 6.44085 7.95453 5.82289 6.43507C5.56841 5.81242 5.09 5.46466 4.47668 5.45566C3.30818 5.4362 2.22747 5.43667 1.17391 5.45716C0.676984 5.46578 0.328514 5.62221 0.138014 5.92216C-0.0527212 6.22268 -0.0457368 6.60583 0.158826 7.06118C1.62114 10.3129 2.94893 12.6784 4.46393 14.7313C5.53067 16.1765 6.60449 17.1797 7.84326 17.8885C9.14479 18.6331 10.6126 18.998 12.3155 18.998C12.5092 18.998 12.7062 18.9933 12.9058 18.9837C13.9564 18.9359 14.3839 18.518 14.4305 17.4947C14.4567 16.954 14.5169 16.5159 14.7257 16.1352C14.7841 16.0287 14.85 15.9572 14.902 15.9442C14.9572 15.9304 15.0551 15.9642 15.164 16.0349C15.3631 16.1642 15.5345 16.3395 15.6754 16.4934C15.8183 16.6498 15.9627 16.8114 16.1024 16.9676C16.3998 17.3003 16.7072 17.6443 17.0293 17.9725C17.7579 18.7151 18.5978 19.0557 19.5267 18.9844L22.8645 18.9859C22.8646 18.9859 22.8646 18.9859 22.8647 18.9859C22.8753 18.9859 22.8859 18.9856 22.8965 18.9849C23.2814 18.9593 23.6143 18.7461 23.8098 18.4C24.0451 17.9832 24.0416 17.4552 23.8001 16.9872C23.5481 16.5006 23.2211 16.0817 22.9336 15.7351ZM22.9772 17.9299C22.9312 18.0114 22.8744 18.0263 22.8451 18.0298L19.5081 18.0283C19.508 18.0283 19.5079 18.0283 19.5078 18.0283C19.4946 18.0283 19.4814 18.0288 19.4683 18.0299C18.8109 18.0847 18.2521 17.8536 17.7117 17.3028C17.4052 16.9905 17.1053 16.655 16.8153 16.3306C16.674 16.1724 16.5279 16.0089 16.3811 15.8482C16.199 15.6494 15.9739 15.4209 15.6848 15.2331C15.2518 14.9521 14.893 14.9605 14.6684 15.0172C14.446 15.0732 14.13 15.233 13.8874 15.6757C13.5732 16.2485 13.5039 16.8664 13.4756 17.4501C13.4593 17.8071 13.3989 17.9014 13.3737 17.9254C13.3407 17.9568 13.2302 18.012 12.8618 18.0288C11.091 18.1121 9.60497 17.795 8.3181 17.0587C7.19863 16.4182 6.21838 15.4982 5.2333 14.1636C3.76024 12.1677 2.46415 9.85639 1.03094 6.66935C0.979001 6.5539 0.962969 6.48185 0.958329 6.44327C0.994891 6.43127 1.06633 6.41547 1.19158 6.41318C2.23446 6.39297 3.30387 6.39241 4.46182 6.41172C4.62036 6.41407 4.80087 6.46165 4.93756 6.7961C5.58322 8.38372 6.32905 9.76536 7.2178 11.0201C7.45377 11.3532 7.74749 11.7677 8.17916 12.0631C8.57456 12.3338 8.89542 12.3209 9.09501 12.2624C9.2947 12.2039 9.57183 12.0412 9.75848 11.5993C9.8789 11.3144 9.9517 10.9936 9.98775 10.5883C10.0907 9.38586 10.0725 8.38611 9.93033 7.44312C9.83015 6.76751 9.48131 6.27944 8.93179 6.03021C9.02939 5.97939 9.13935 5.95821 9.29207 5.95821H13.0363C13.247 6.00546 13.2887 6.06096 13.303 6.07994C13.3637 6.16061 13.3983 6.35144 13.4195 6.50055L13.4227 10.6759C13.4143 11.0762 13.6088 11.9639 14.2712 12.2073C14.2766 12.2093 14.2821 12.2112 14.2876 12.213C14.8906 12.4101 15.2894 11.9844 15.5035 11.7557L15.5417 11.7151C16.5493 10.6456 17.2278 9.39603 17.758 8.31626C18.0342 7.75868 18.2682 7.18193 18.4661 6.68477C18.5651 6.43544 18.6552 6.39438 18.8702 6.39893C18.8731 6.39902 18.876 6.39902 18.879 6.39902L22.5308 6.40226C22.6158 6.40226 22.7044 6.40324 22.7732 6.41501C22.9472 6.44463 23.0189 6.48072 23.0425 6.49568C23.0449 6.52338 23.0444 6.60307 22.9918 6.76938C22.7269 7.60324 22.2149 8.31172 21.673 9.06181L21.6083 9.15148C21.3267 9.54111 21.0294 9.93313 20.7419 10.3123C20.4105 10.7492 20.0679 11.201 19.7431 11.6569C19.0487 12.6257 19.1097 13.2687 19.9763 14.1139C20.1811 14.3138 20.391 14.5127 20.5941 14.705C21.1698 15.2503 21.7136 15.7653 22.1989 16.3468C22.4529 16.6531 22.7409 17.0209 22.9508 17.4263C23.0603 17.6385 23.0335 17.8302 22.9772 17.9299Z" fill="white"/>
<path d="M3.48669 7.95091C3.41647 7.81197 3.34686 7.67266 3.27791 7.53306C3.16091 7.29639 2.8744 7.19917 2.63754 7.31617C2.40082 7.43313 2.3037 7.71982 2.42065 7.95654C2.49092 8.09876 2.56184 8.24069 2.63332 8.38221C2.71747 8.54871 2.88579 8.64471 3.06036 8.64471C3.13283 8.64471 3.20647 8.62817 3.27561 8.59324C3.51134 8.47409 3.6058 8.18655 3.48669 7.95091Z" fill="white"/>
<path d="M6.48529 12.9114C5.70134 11.8493 4.96794 10.6956 4.24325 9.38456C4.11551 9.15346 3.8246 9.06975 3.59356 9.19743C3.36251 9.32517 3.27869 9.61608 3.40643 9.84713C4.15156 11.1951 4.90704 12.3832 5.71602 13.4793C5.80977 13.6063 5.95447 13.6735 6.10105 13.6735C6.19967 13.6735 6.29914 13.6431 6.38455 13.58C6.59694 13.4232 6.64204 13.1239 6.48529 12.9114Z" fill="white"/>
</g>
<defs>
<clipPath id="clip0">
<rect width="24" height="24" fill="white"/>
</clipPath>
</defs>
</svg>
