<svg width="20" height="20" viewBox="0 0 20 20" fill="none" xmlns="http://www.w3.org/2000/svg">
<g opacity="0.5">
<path d="M10.0987 2.77254L10.0704 2.77246C10.07 2.77246 10.0697 2.77246 10.0693 2.77246C9.8541 2.77246 9.6793 2.94664 9.67871 3.16203C9.67871 3.16234 9.67871 3.16266 9.67871 3.16297C9.67863 3.37828 9.85285 3.55312 10.0683 3.55371L10.0966 3.55379C10.0969 3.55379 10.0973 3.55379 10.0977 3.55379C10.3129 3.55379 10.4877 3.37961 10.4883 3.16422C10.4883 3.16391 10.4883 3.16359 10.4883 3.16328C10.4884 2.94797 10.3141 2.77312 10.0987 2.77254Z" fill="white"/>
<path d="M19.5856 5.19927C19.3291 4.22408 18.5725 3.45607 17.6113 3.19498C16.6201 2.92502 13.8566 2.8256 11.7129 2.78978C11.4984 2.78685 11.3193 2.95814 11.3157 3.17384C11.3121 3.38955 11.4841 3.56736 11.6998 3.57095C14.667 3.62056 16.6935 3.75474 17.4062 3.94884C18.0988 4.13697 18.6444 4.69224 18.8301 5.39822C19.2141 6.85459 19.2188 9.96841 19.2188 9.99966C19.2188 10.031 19.2141 13.1448 18.83 14.6014C18.6444 15.3071 18.0988 15.8624 17.406 16.0506C15.9745 16.4404 10.0596 16.445 10 16.445C9.94043 16.445 4.02555 16.4404 2.59375 16.0505C1.90117 15.8624 1.35559 15.3071 1.16992 14.6011C0.785938 13.1448 0.78125 10.031 0.78125 9.9997C0.78125 9.96841 0.785937 6.85459 1.16996 5.39802C1.35559 4.69228 1.90117 4.13701 2.59398 3.9488C3.32238 3.75044 5.40879 3.61533 8.46894 3.56826C8.68465 3.56498 8.8568 3.3874 8.85352 3.1717C8.85019 2.95599 8.67207 2.78525 8.45691 2.78712C6.24719 2.82107 3.4007 2.91943 2.38895 3.19494C1.4275 3.45607 0.670898 4.22412 0.414492 5.19908C0.00472657 6.7533 0 9.86787 0 9.9997C0 10.1315 0.00472657 13.2461 0.414414 14.8001C0.670898 15.7753 1.4275 16.5433 2.38871 16.8044C3.92027 17.2215 9.7525 17.2263 10 17.2263C10.2475 17.2263 16.0797 17.2215 17.6111 16.8045C18.5725 16.5433 19.3291 15.7753 19.5855 14.8003C19.9953 13.2461 20 10.1315 20 9.9997C20 9.86787 19.9953 6.7533 19.5856 5.19927Z" fill="white"/>
<path d="M2.26562 8.96582C2.04988 8.96582 1.875 9.1407 1.875 9.35645V12.54C1.875 12.7558 2.04988 12.9307 2.26562 12.9307C2.48137 12.9307 2.65625 12.7558 2.65625 12.54V9.35645C2.65625 9.1407 2.48137 8.96582 2.26562 8.96582Z" fill="white"/>
<path d="M2.26562 7.18848C2.04988 7.18848 1.875 7.36336 1.875 7.5791V7.58371C1.875 7.79945 2.04988 7.97434 2.26562 7.97434C2.48137 7.97434 2.65625 7.79945 2.65625 7.58371V7.5791C2.65625 7.36336 2.48137 7.18848 2.26562 7.18848Z" fill="white"/>
<path d="M13.1683 9.72179L8.32459 6.90929C8.20373 6.83909 8.05463 6.83882 7.93354 6.90855C7.81244 6.97827 7.73779 7.10737 7.73779 7.2471V12.8721C7.73779 13.0119 7.81244 13.1409 7.93354 13.2107C7.99385 13.2454 8.06111 13.2627 8.12842 13.2627C8.19619 13.2627 8.26397 13.2451 8.32459 13.2099L13.1683 10.3974C13.2888 10.3275 13.3628 10.1988 13.3628 10.0596C13.3628 9.92038 13.2887 9.79171 13.1683 9.72179ZM8.51904 12.1936V7.92562L12.1942 10.0596L8.51904 12.1936Z" fill="white"/>
</g>
</svg>
